<?xml version="1.0" standalone="no"?>
<!DOCTYPE svg PUBLIC "-//W3C//DTD SVG 1.1//EN" "http://www.w3.org/Graphics/SVG/1.1/DTD/svg11.dtd" >
<svg xmlns="http://www.w3.org/2000/svg">
<metadata>
This is a custom SVG webfont generated by Font Squirrel.
Copyright   :  2011 Sergiy S Tkachenko  4th february 2011 DesignContestcomhttpcreativecommonsorglicensesbynd30httpcreativecommonsorglicensesbynd30deedru
Designer    : Sergiy S Tkachenko
Foundry     : Sergiy S Tkachenko
Foundry URL : httpdesigncontestcom
</metadata>
<defs>
<font id="SansusWebissimoRegular" horiz-adv-x="1167" >
<font-face units-per-em="2048" ascent="1536" descent="-512" />
<missing-glyph horiz-adv-x="430" />
<glyph unicode=" "  horiz-adv-x="430" />
<glyph unicode="&#x09;" horiz-adv-x="430" />
<glyph unicode="&#xa0;" horiz-adv-x="430" />
<glyph unicode="!" horiz-adv-x="577" d="M135 152q0 78 44 125t110 47t109.5 -47.5t43.5 -124.5q0 -78 -44 -125t-109 -47q-66 0 -110 47t-44 125zM135 1450h309l-34 -907h-240z" />
<glyph unicode="&#x22;" horiz-adv-x="749" d="M78 1446h227l-29 -496h-170zM426 1446h227l-28 -496h-172z" />
<glyph unicode="#" horiz-adv-x="1011" d="M23 379l24 194h148l43 228h-166l24 192h178l56 299l202 -18l-53 -281h166l53 289l203 -20q-14 -68 -25.5 -134.5t-25.5 -134.5h139q-6 -49 -12 -97t-10 -95h-154l-43 -228h170l-25 -194h-180l-61 -326q-51 6 -100.5 11.5t-100.5 9.5l55 305h-166l-59 -313q-51 4 -100 9 t-101 11l56 293h-135zM399 573h166l43 228h-168q-10 -57 -20.5 -114t-20.5 -114z" />
<glyph unicode="$" horiz-adv-x="888" d="M53 139l49 201q20 -6 52 -16.5t69 -20.5t76 -17t76 -7q70 0 104.5 31.5t34.5 82.5q0 43 -32.5 78t-81 69.5t-104.5 70.5t-104.5 82t-81 103.5t-32.5 135.5q0 127 70.5 210t197.5 111l-4 209h209q-2 -49 -3 -98t-1 -98q80 -6 138 -19.5t91 -21.5l-22 -213 q-29 10 -94.5 25.5t-137.5 15.5q-66 0 -108.5 -28t-42.5 -77q0 -43 33.5 -77.5t83 -68.5t108.5 -70t108.5 -81t83 -102t33.5 -135q0 -129 -66.5 -218.5t-207.5 -117.5l4 -201h-209l4 186q-57 4 -104 14.5t-84 23t-64 22.5t-41 16z" />
<glyph unicode="%" horiz-adv-x="1359" d="M68 1042q0 346 266 347q266 0 266 -347q0 -180 -65.5 -265t-200.5 -85q-137 0 -201.5 85t-64.5 265zM240 1042q0 -100 21.5 -153t72.5 -53q53 0 74.5 53t21.5 153q0 98 -22.5 150.5t-73.5 52.5t-72.5 -52.5t-21.5 -150.5zM242 -10l661 1372h223l-659 -1372h-225zM768 309 q0 346 266 346q268 0 269 -346q0 -180 -67 -265t-202 -85q-137 0 -201.5 85t-64.5 265zM940 309q0 -100 21.5 -152.5t72.5 -52.5q53 0 74.5 52.5t21.5 152.5q0 98 -22.5 150.5t-73.5 52.5t-72.5 -52.5t-21.5 -150.5z" />
<glyph unicode="&#x26;" horiz-adv-x="1308" d="M47 393q0 139 69.5 233.5t182.5 149.5q-59 61 -99 132t-40 167q0 156 100 236t275 80q166 0 267 -74t101 -221q0 -135 -70.5 -225.5t-185.5 -153.5l219 -248q12 18 24.5 44t21 54.5t14.5 57t6 51.5h270q-4 -59 -19.5 -117.5t-38 -111t-48 -95.5t-52.5 -73l252 -279h-366 l-86 98q-68 -57 -151 -89t-210 -32q-90 0 -170 25t-139 75t-93 128.5t-34 187.5zM352 414q0 -94 46 -155.5t124 -61.5q45 0 88 19.5t66 57.5l-217 330q-53 -27 -80 -78t-27 -112zM451 1071q0 -39 5 -73.5t40 -75.5l28 -33q35 25 70 71t35 105q0 39 -20.5 77t-76.5 38 q-33 0 -57 -23t-24 -86z" />
<glyph unicode="'" horiz-adv-x="403" d="M78 1446h227l-29 -496h-170z" />
<glyph unicode="(" horiz-adv-x="667" d="M104 573q0 186 30 338t78 270.5t110.5 206t128.5 146.5l176 -125q-35 -39 -77 -113.5t-78 -182t-60.5 -244t-24.5 -296.5t24.5 -295t60.5 -241.5t78 -181t77 -113.5l-178 -127q-66 59 -127.5 146t-109.5 205t-78 269.5t-30 337.5z" />
<glyph unicode=")" horiz-adv-x="667" d="M39 -258q35 39 77 113.5t78.5 182t61.5 244t25 296.5t-25 295t-61.5 241.5t-78.5 181t-77 113.5l178 125q63 -59 126 -146.5t112 -205t78.5 -268t29.5 -336.5t-29.5 -338t-78.5 -271t-111.5 -207t-126.5 -145z" />
<glyph unicode="*" horiz-adv-x="837" d="M39 1026l65 199l234 -107l-27 268h215l-30 -268l239 107q16 -49 31.5 -99.5t32.5 -99.5l-252 -51l184 -201l-174 -125l-137 234l-139 -234l-86 62q-43 31 -86 63l182 199q-63 12 -126 25.5t-126 27.5z" />
<glyph unicode="+" horiz-adv-x="962" d="M80 514v217h287v318h229v-318h287v-217h-287v-319h-229v319h-287z" />
<glyph unicode="," horiz-adv-x="477" d="M49 -246q29 53 56.5 116.5t27.5 111.5q0 39 -11 76.5t-11 86.5v11q0 68 37.5 109.5t82.5 41.5q145 0 146 -180q-4 -53 -23.5 -109.5t-48.5 -113t-63.5 -110.5t-67.5 -103z" />
<glyph unicode="-" horiz-adv-x="653" d="M74 463v221h506v-221h-506z" />
<glyph unicode="." horiz-adv-x="509" d="M100 152q0 78 44 125t110 47t110 -47.5t44 -124.5q0 -78 -44.5 -125t-109.5 -47q-66 0 -110 47t-44 125z" />
<glyph unicode="/" horiz-adv-x="800" d="M2 -276q84 281 170 555t162 508.5t135 413.5t94 269h246q-33 -90 -93.5 -269t-135 -413.5t-160.5 -509t-170 -554.5h-248z" />
<glyph unicode="0" horiz-adv-x="1048" d="M63 672q0 186 30 319t88.5 217t144.5 124t196 40q111 0 197 -40t144.5 -124t89 -217t30.5 -319t-30.5 -318.5t-89 -217.5t-144.5 -124t-197 -39t-196.5 39t-144 124t-88.5 217.5t-30 318.5zM346 672q0 -236 37 -362t139 -126t141 125t39 363q0 236 -38.5 362.5 t-141.5 126.5q-100 0 -138 -126.5t-38 -362.5z" />
<glyph unicode="1" horiz-adv-x="737" d="M-10 1059q53 43 109.5 87t106.5 82t93 69.5t70 50.5h252v-1348h-283v1063q-57 -47 -115.5 -93t-109.5 -85z" />
<glyph unicode="2" horiz-adv-x="878" d="M33 0v199q25 27 69.5 73.5t98 108t109 132.5t100.5 144.5t73.5 148.5t28.5 142q0 201 -178 201q-39 0 -77 -6t-70.5 -15.5t-57.5 -18.5t-37 -15q-12 47 -23.5 97t-21.5 97q16 8 50 22.5t79 28t101.5 23.5t119.5 10q201 0 303.5 -93t102.5 -271q0 -117 -42 -226.5 t-107.5 -209t-145.5 -187.5t-156 -162q106 4 220 8.5t247 4.5v-236h-786z" />
<glyph unicode="3" horiz-adv-x="954" d="M16 80l76 196q10 -4 36 -16t62.5 -24.5t82.5 -22.5t96 -10q102 0 162.5 46t60.5 157q0 92 -56.5 133t-160.5 41q-47 0 -89 -1t-61 -1v206h70q47 0 88 4.5t74 18.5q10 4 26.5 17.5t32.5 37t27.5 55t11.5 72.5q0 82 -52 119t-145 37q-41 0 -80.5 -6t-72.5 -14.5 t-54.5 -16.5t-27.5 -10l-49 209q14 6 43.5 16t75 21.5t102.5 19.5t125 8q203 0 316.5 -86t113.5 -252q0 -123 -57.5 -199.5t-137.5 -119.5q106 -29 171 -106t65 -216q0 -111 -36 -190.5t-99.5 -131t-151.5 -75t-194 -23.5q-82 0 -148.5 15.5t-117 34t-82.5 36t-46 21.5z" />
<glyph unicode="4" horiz-adv-x="1050" d="M57 350v185l359 813h291l-330 -768h227v235l283 41v-276h106v-230h-106v-350h-283v350h-547z" />
<glyph unicode="5" horiz-adv-x="935" d="M41 88l74 180q18 -10 50 -23.5t70.5 -24.5t80.5 -19t81 -8q92 0 139.5 60t47.5 173q0 106 -50.5 162.5t-146.5 56.5q-59 0 -112.5 -16.5t-69.5 -26.5q-18 6 -38 12.5t-38 10.5l55 723h631v-226h-418l-20 -295q23 10 48.5 16.5t59.5 6.5q172 0 278.5 -106.5t106.5 -321.5 q0 -121 -34.5 -205t-96 -138t-145.5 -79t-184 -25q-82 0 -143.5 14.5t-105.5 34t-73 38t-47 26.5z" />
<glyph unicode="6" horiz-adv-x="983" d="M61 510q0 180 50.5 321.5t135.5 248t197.5 181t235.5 123.5l84 -196q-115 -49 -212 -137t-151 -230q35 14 82 26.5t101 12.5q80 0 143.5 -29.5t108.5 -83t69.5 -127t24.5 -159.5q0 -121 -34 -212t-93.5 -151.5t-138 -91.5t-170.5 -31q-90 0 -169 31t-137.5 95.5 t-92.5 166t-34 242.5zM344 434q4 -115 45 -184.5t113 -69.5t110.5 68.5t38.5 197.5q0 115 -41 172.5t-106 57.5q-45 0 -82 -17.5t-64 -46.5q-8 -39 -11 -84t-3 -94z" />
<glyph unicode="7" horiz-adv-x="856" d="M27 1114v234h794v-172q-41 -98 -93 -230.5t-108.5 -285t-117 -320.5t-117.5 -340h-299q29 82 70 190.5t86 224t92 230.5t87 213t68.5 170t38.5 102z" />
<glyph unicode="8" horiz-adv-x="995" d="M57 393q0 139 64.5 216t171.5 106q-80 43 -137.5 119.5t-57.5 199.5q0 82 30 145.5t84 106.5t129 64.5t167 21.5q184 0 286.5 -86t102.5 -252q0 -123 -57.5 -199.5t-137.5 -119.5q106 -29 171 -106t65 -216q0 -111 -33 -190.5t-91 -131t-139 -75t-177 -23.5t-177 23.5 t-139.5 75t-91.5 131t-33 190.5zM356 385q0 -100 38 -150.5t104 -50.5t103.5 50.5t37.5 150.5q0 92 -48 142.5t-134 50.5q-49 0 -75 -50.5t-26 -142.5zM393 1010q0 -31 2 -69t15.5 -70.5t43 -55t85.5 -22.5q25 0 37 20.5t18 53t7 70.5t1 73q0 70 -27.5 110.5t-76.5 40.5 q-51 0 -78 -40.5t-27 -110.5z" />
<glyph unicode="9" horiz-adv-x="983" d="M53 887q0 119 34 210t92.5 152.5t137 92t170.5 30.5q90 0 169 -30.5t137.5 -96t92.5 -166t34 -241.5q0 -182 -50.5 -323.5t-135.5 -248t-196.5 -181.5t-236.5 -124l-84 197q115 47 212 135t151 231q-35 -14 -79 -26.5t-98 -12.5q-80 0 -144 29t-110.5 82t-71 127 t-24.5 164zM330 899q0 -117 41 -173t106 -56q45 0 82 17.5t62 47.5q16 78 16 183q-4 117 -45 182t-113 65t-110.5 -68.5t-38.5 -197.5z" />
<glyph unicode=":" horiz-adv-x="509" d="M102 190q0 76 44 124t108 48q66 0 109 -48t43 -124q0 -78 -43.5 -124t-108.5 -46q-63 0 -107.5 46t-44.5 124zM102 821q0 78 44 125t108 47q66 0 109 -47t43 -125t-43.5 -124t-108.5 -46q-63 0 -107.5 46t-44.5 124z" />
<glyph unicode=";" horiz-adv-x="509" d="M66 -246q29 53 56.5 116.5t27.5 111.5q0 39 -11.5 76.5t-11.5 86.5v11q0 66 38 108.5t83 42.5q145 0 145 -180q-4 -53 -23.5 -109.5t-48 -113t-63.5 -110.5t-68 -103q-33 16 -62 31.5t-62 31.5zM102 821q0 78 44 125t108 47q66 0 109 -47t43 -125t-43.5 -124t-108.5 -46 q-63 0 -107.5 46t-44.5 124z" />
<glyph unicode="&#x3c;" horiz-adv-x="903" d="M96 629v94l664 405v-215l-369 -237l369 -242v-211z" />
<glyph unicode="=" horiz-adv-x="976" d="M86 311v213h803v-213h-803zM86 719v213h803v-213h-803z" />
<glyph unicode="&#x3e;" horiz-adv-x="903" d="M143 223v211l369 242l-369 237v215l664 -405v-94z" />
<glyph unicode="?" horiz-adv-x="770" d="M12 1384q12 6 37 20.5t64 28t93 24.5t126 11q80 0 151.5 -20.5t123.5 -62.5t83 -107.5t31 -157.5q0 -88 -23.5 -149.5t-58.5 -106.5t-77 -80.5t-76.5 -74.5t-58.5 -87.5t-24 -117.5q-18 0 -47.5 -3t-62.5 -6t-61.5 -5.5t-47.5 -2.5q-2 12 -3 24.5t-1 23.5q0 74 18.5 128 t46 97t60.5 78.5t60.5 72.5t46 79t18.5 97q0 78 -40 111t-124 33q-35 0 -68.5 -6t-61 -14.5t-47 -17.5t-26.5 -13zM143 150q0 78 44 125t108 47q66 0 108.5 -47.5t42.5 -124.5q0 -78 -43 -123t-108 -45q-63 0 -107.5 45t-44.5 123z" />
<glyph unicode="@" horiz-adv-x="1632" d="M94 418q0 207 53.5 373.5t151.5 283.5t238.5 180.5t316.5 63.5q160 0 287 -53.5t217 -154.5t138 -247.5t48 -335.5q0 -176 -39 -286.5t-94 -172t-117.5 -83t-111.5 -21.5q-68 0 -129.5 35t-83.5 109q-12 -20 -33 -46t-48.5 -47.5t-63.5 -36t-79 -14.5q-53 0 -103 24.5 t-90 77t-64.5 136.5t-24.5 203t24.5 206.5t64.5 145t92 86t106 28.5q63 0 112 -23.5t90 -41.5q4 12 5 35.5t4 36.5l174 -25v-596q0 -53 13 -92t54 -39q61 0 97 96t36 271q0 307 -119.5 473t-363.5 166q-123 0 -224.5 -44.5t-173 -133.5t-110.5 -222t-39 -309 q0 -330 138.5 -509t406.5 -179q66 0 117 8t82 12l36 -176q-35 -6 -108.5 -18.5t-161.5 -12.5q-172 0 -306 62.5t-226.5 176.5t-140.5 274.5t-48 355.5zM680 420q0 -279 123 -279q47 0 79.5 36t49.5 67v411q-20 16 -49 38t-68 22q-72 0 -103.5 -81t-31.5 -214z" />
<glyph unicode="A" horiz-adv-x="1132" d="M23 0l374 1348h344l369 -1348h-301l-61 233h-377l-62 -233h-286zM414 430h291q-18 88 -40 181.5t-41.5 180.5t-36 163.5t-26.5 131.5q-10 -55 -27.5 -131.5t-37 -163.5t-41 -180.5t-41.5 -181.5z" />
<glyph unicode="B" horiz-adv-x="1048" d="M127 0v1348q51 0 147.5 6t196.5 6q244 0 356.5 -77t112.5 -269q0 -117 -49 -195t-111 -117q43 -14 81 -37.5t65.5 -60.5t44 -90t16.5 -125q0 -205 -121 -304t-383 -99q-109 0 -206 7t-150 7zM399 197q16 0 33 -1t33 -1q121 0 180.5 45t59.5 166q0 94 -57.5 140t-166.5 46 q-23 0 -44 -1t-38 -3v-391zM399 758q16 0 33 -1t33 -1q59 0 99 17.5t63.5 47t32.5 66.5q8 30 8 63v15q-4 94 -41 141t-146 47q-23 0 -44 -1t-38 -3v-391z" />
<glyph unicode="C" horiz-adv-x="976" d="M68 672q0 356 137 529t411 173q63 0 115.5 -8t92.5 -19.5t67 -21.5t39 -14q-10 -53 -19.5 -107.5t-19.5 -107.5q-29 12 -90.5 31.5t-134.5 19.5q-88 0 -145.5 -30t-92.5 -88t-49 -148t-14 -209q0 -121 14 -210t49 -147.5t92.5 -88t145.5 -29.5q74 0 135 19.5t90 31.5 q10 -53 19.5 -107.5t19.5 -107.5q-12 -4 -39 -14.5t-67 -21.5t-92 -19.5t-116 -8.5q-274 0 -411 173.5t-137 529.5z" />
<glyph unicode="D" horiz-adv-x="1138" d="M127 0v1348q49 0 142 6t214 6q141 0 251 -30t184.5 -106.5t113.5 -209.5t39 -342q0 -205 -39 -337t-113.5 -210t-184 -108.5t-251.5 -30.5q-119 0 -213 7t-143 7zM412 211q23 -2 47 -2h51q141 0 204.5 115.5t63.5 347.5q0 242 -63.5 353.5t-206.5 111.5q-23 0 -47.5 -1 t-48.5 -3v-922z" />
<glyph unicode="E" horiz-adv-x="921" d="M127 0v1348h729v-232h-442v-311h336v-217h-336v-357h442v-231h-729z" />
<glyph unicode="F" horiz-adv-x="868" d="M127 0v1348h704v-232h-417v-368h348v-218h-348v-530h-287z" />
<glyph unicode="G" horiz-adv-x="1064" d="M68 672q0 356 137 529t411 173q63 0 122 -8t105 -19.5t78.5 -21.5l45.5 -14q-10 -53 -19.5 -107.5t-19.5 -107.5q-14 6 -43 15t-66 16.5t-77 13.5t-76 6q-88 0 -145.5 -30t-92.5 -88t-49 -148t-14 -209q0 -121 14 -210t49 -147.5t92.5 -88t145.5 -29.5h27q13 0 30 2v358 h-141v227h426v-751l-51 -15q-36 -10 -88 -21t-116.5 -19.5t-136.5 -8.5q-274 0 -411 173.5t-137 529.5z" />
<glyph unicode="H" horiz-adv-x="1189" d="M127 0v1348h285v-564h366v564h283v-1348h-283v557h-366v-557h-285z" />
<glyph unicode="I" horiz-adv-x="540" d="M127 0v1348h285v-1348h-285z" />
<glyph unicode="J" horiz-adv-x="555" d="M-43 -338q4 53 7 105.5t7 105.5q63 6 105 68q41 29 57.5 87t16.5 175v1145h282v-1082q0 -190 -26.5 -309t-79 -185.5t-128 -90t-175.5 -23.5q-16 0 -33 1t-33 3z" />
<glyph unicode="K" horiz-adv-x="1103" d="M127 0v1348h285v-590l329 590h318l-381 -611q104 -186 210.5 -368.5t211.5 -368.5h-338l-350 657v-657h-285z" />
<glyph unicode="L" horiz-adv-x="843" d="M127 0v1348h285v-1117h399l-18 -231h-666z" />
<glyph unicode="M" horiz-adv-x="1417" d="M51 0l129 1348h277q10 -29 29.5 -91.5t44 -143.5t52 -172t52 -176t44 -156.5t30.5 -110.5q10 39 30.5 109.5t45 155.5t52 176t53 173t45 144.5t30.5 91.5h278l123 -1348h-287q-2 35 -7 99.5t-10 145.5t-12.5 171t-12.5 173t-10 154.5t-7 114.5q-10 -33 -27.5 -94.5 t-39 -135t-45 -154.5t-45 -151.5t-38 -127t-24.5 -80.5h-195q-8 25 -25.5 80t-39 125.5t-45 150.5t-46 153.5t-40 136t-25.5 97.5l-57 -858h-277z" />
<glyph unicode="N" horiz-adv-x="1183" d="M127 0v1348h256q109 -211 214 -423t212 -423h4q0 20 -3 63t-3 86v697h250v-1348h-254l-430 850h-2q0 -20 3 -62.5t3 -89.5v-698h-250z" />
<glyph unicode="O" d="M68 674q0 358 133 528t381 170t382 -170t134 -528t-134.5 -529.5t-381.5 -171.5q-248 0 -381 171.5t-133 529.5zM360 674q0 -225 51.5 -349t170.5 -124q121 0 173 124t52 349t-53.5 348t-171.5 123q-117 0 -169.5 -123t-52.5 -348z" />
<glyph unicode="P" horiz-adv-x="1015" d="M127 0v1348q27 0 66.5 2t87 4t98.5 4t100 2q262 0 374 -117t112 -344q0 -127 -36 -215t-99.5 -142.5t-147.5 -78t-182 -23.5q-27 0 -50.5 1t-46.5 3v-444h-276zM403 653h76q88 0 143.5 53.5t55.5 192.5q0 125 -49 184.5t-140 59.5h-42q-22 0 -44 -2v-488z" />
<glyph unicode="Q" d="M68 674q0 358 133 528t381 170t382 -170t134 -528q0 -246 -62.5 -401.5t-183.5 -229.5q59 -53 121.5 -87t101.5 -50l-125 -189q-14 4 -52 17.5t-88 43t-110.5 77t-117.5 118.5q-248 0 -381 171.5t-133 529.5zM360 674q0 -225 51.5 -349t170.5 -124q121 0 173 124t52 349 t-53.5 348t-171.5 123q-117 0 -169.5 -123t-52.5 -348z" />
<glyph unicode="R" horiz-adv-x="1058" d="M127 0v1348q53 0 154.5 6t207.5 6q248 0 370 -98.5t122 -337.5q0 -82 -18.5 -144.5t-50 -108.5t-72.5 -76t-84 -46l262 -549h-301l-215 512q-39 0 -66.5 2t-38.5 2v-516h-270zM397 723q16 0 52 -3t75 -3q82 0 126 52t44 159q0 109 -43 162t-141 53q-27 0 -54.5 -1 t-58.5 -3v-416z" />
<glyph unicode="S" horiz-adv-x="917" d="M47 74l66 207q14 -6 41.5 -19.5t63.5 -27t77 -24.5t82 -11q37 0 72.5 9t64.5 27.5t46.5 47t17.5 69.5q0 57 -38 98.5t-94.5 78t-122 75.5t-122 90t-94 120t-37.5 169q0 180 113.5 284.5t318.5 104.5q76 0 136 -11t104 -26.5t74 -30t46 -20.5l-65 -207q-16 6 -44 19.5 t-63 27t-76 24.5t-82 11q-47 0 -79.5 -15.5t-54 -38t-31 -49t-9.5 -46.5q0 -61 38 -106.5t94.5 -83.5t122 -76.5t122 -88t94 -116t37.5 -160.5q0 -193 -112.5 -299.5t-335.5 -106.5q-78 0 -138.5 13.5t-106.5 31t-78 34t-48 22.5z" />
<glyph unicode="T" horiz-adv-x="903" d="M31 1116v232h841l-2 -232h-276v-1116h-285v1116h-278z" />
<glyph unicode="U" horiz-adv-x="1134" d="M111 633v715h284v-715q0 -113 5.5 -194t22.5 -134t51 -78.5t93 -25.5t93 25.5t51.5 78.5t21.5 134t4 194v715h281v-715q0 -178 -23.5 -304t-77 -205t-139.5 -115t-211 -36q-123 0 -210 36t-142 115t-79.5 205t-24.5 304z" />
<glyph unicode="V" horiz-adv-x="1083" d="M25 1348h292l205 -928l25 -203l24 203l205 928h293l-377 -1348h-291z" />
<glyph unicode="W" horiz-adv-x="1513" d="M20 1348h287l166 -912l176 805h221l177 -805l167 912h277l-281 -1348h-268l-184 858l-193 -858h-264z" />
<glyph unicode="X" horiz-adv-x="1101" d="M6 0l379 678l-362 670h327q12 -29 40 -91.5t59.5 -135t60.5 -139.5t41 -99q12 35 41 101.5t61.5 138t61 134t41.5 91.5h323l-362 -672q96 -170 190 -338t189 -338h-336q-12 29 -42 92.5t-62.5 135t-62.5 139t-42 106.5q-14 -37 -45 -104.5t-63.5 -140t-62.5 -136 t-44 -92.5h-330z" />
<glyph unicode="Y" horiz-adv-x="1081" d="M-4 1348h305q35 -94 72 -191.5t68.5 -184.5t58 -159t41.5 -113q14 41 40.5 113t58.5 159t68.5 184t71.5 192h305q-92 -207 -183 -412t-183 -410l-35 -82v-444h-285v444l-37 82q-92 205 -183 410t-183 412z" />
<glyph unicode="Z" horiz-adv-x="952" d="M57 0v184l504 934h-489v230h807v-185q-125 -236 -250 -467t-252 -467h510v-229h-830z" />
<glyph unicode="[" horiz-adv-x="636" d="M160 -295v1854h456v-189h-225v-1476h225v-189h-456z" />
<glyph unicode="\" horiz-adv-x="800" d="M-10 1470h248q86 -281 171 -555t160.5 -508.5t135 -413.5t94.5 -269h-248q-35 90 -94.5 269t-135 413.5t-161.5 508.5t-170 555z" />
<glyph unicode="]" horiz-adv-x="636" d="M23 -106h225v1476h-225v186h456v-1851h-456v189z" />
<glyph unicode="^" horiz-adv-x="886" d="M98 1073l310 311h73l310 -311l-117 -121q-57 53 -113.5 105.5t-116.5 105.5q-59 -53 -115.5 -105t-113.5 -106z" />
<glyph unicode="_" horiz-adv-x="980" d="M23 -158h935v-204h-935v204z" />
<glyph unicode="`" horiz-adv-x="735" d="M104 1477l154 149l285 -342l-119 -110z" />
<glyph unicode="a" horiz-adv-x="956" d="M47 293q0 195 123 278.5t367 83.5l47 -4v25q0 63 -13.5 101t-37 58.5t-55.5 26.5t-70 6q-70 0 -142.5 -15t-113.5 -30l-31 189q25 8 60.5 19t79.5 20.5t93 16.5t101 7q211 0 307 -99t96 -308v-668h-254q-4 29 -7 57.5t-7 57.5q-10 -10 -28.5 -33t-49.5 -46.5t-77 -42 t-107 -18.5q-57 0 -108.5 18.5t-89.5 57.5t-60.5 98.5t-22.5 143.5zM313 326q0 -72 29 -111t90 -39q33 0 57.5 9.5t43 23.5t30.5 30l21 25v232h-28q-13 0 -28 2q-117 0 -166 -37t-49 -135z" />
<glyph unicode="b" horiz-adv-x="1044" d="M100 0v1473l277 40v-581q20 20 49 46t63.5 47.5t76.5 35.5t89 14q68 0 128.5 -30.5t105.5 -96t71.5 -166t26.5 -241.5q0 -137 -29.5 -241.5t-80 -174.5t-117 -104.5t-142.5 -34.5q-53 0 -93 13t-70.5 33.5t-55 44t-43.5 44.5l-22 -121h-234zM377 279q31 -23 62.5 -41.5 t66.5 -18.5q100 0 148 69.5t48 229.5q0 182 -40.5 253t-120.5 71q-29 0 -54.5 -10.5t-47 -25.5t-38 -31.5t-24.5 -29.5v-466z" />
<glyph unicode="c" horiz-adv-x="788" d="M57 510q0 287 114 426t331 139q86 0 151.5 -16.5t94.5 -26.5l-33 -203q-20 8 -69.5 20.5t-104.5 12.5q-102 0 -150.5 -81t-48.5 -261q0 -182 50 -256t140 -74q63 0 114.5 24t74.5 32l63 -176q-14 -6 -40.5 -21.5t-64.5 -32t-87 -29t-109 -12.5q-207 0 -316.5 130.5 t-109.5 404.5z" />
<glyph unicode="d" horiz-adv-x="1044" d="M55 504q0 158 35 266.5t94.5 175t137 96t163.5 29.5q43 0 89.5 -12t93.5 -33v447l274 40v-1513h-233l-17 123q-25 -27 -56.5 -52.5t-69.5 -47t-84 -35t-97 -13.5q-68 0 -128 30t-104 93.5t-71 164t-27 241.5zM342 528q0 -92 10 -153.5t30.5 -99t50.5 -53t69 -15.5 q53 0 97 31.5t69 66.5v518q-29 16 -62 26.5t-67 10.5q-100 0 -148.5 -74t-48.5 -258z" />
<glyph unicode="e" horiz-adv-x="935" d="M57 498q0 147 34 255.5t91.5 180.5t134 106.5t164.5 34.5t161 -27.5t125 -88t82 -152.5t30 -221q0 -55 -5.5 -95t-7.5 -49h-534q2 -137 61.5 -197.5t147.5 -60.5q82 0 148.5 28t103.5 44l55 -180q-12 -8 -41 -24.5t-75 -34t-107.5 -30t-137.5 -12.5q-90 0 -167.5 30 t-136 93.5t-92.5 162t-34 237.5zM332 614h280q0 78 -10 129.5t-27.5 81t-42 42t-53.5 12.5q-27 0 -53.5 -13.5t-47 -44t-33.5 -82t-13 -125.5z" />
<glyph unicode="f" horiz-adv-x="632" d="M25 850v203h112v123q0 188 65.5 274t207.5 86q98 0 150 -16.5t73 -24.5l-4 -98q-2 -49 -6 -99q-12 4 -45 11.5t-74 7.5q-53 0 -71.5 -39t-18.5 -141v-84h188v-203h-188v-850h-277v850h-112z" />
<glyph unicode="g" horiz-adv-x="1044" d="M55 489q0 143 30 252t81 180.5t116.5 107.5t139.5 36q90 0 149.5 -42t116.5 -114q6 35 11.5 72t9.5 72h233v-1139q0 -205 -94 -306.5t-299 -101.5q-55 0 -106.5 7.5t-96.5 16.5t-80 20.5t-59 19.5l31 188q41 -14 113.5 -29.5t148.5 -15.5q37 0 67.5 6.5t53 27t36 58 t13.5 101.5v211h-2q-20 -25 -49 -49.5t-65 -45t-78 -34t-91 -13.5q-70 0 -130 31t-104.5 94.5t-70 159.5t-25.5 229zM342 516q0 -86 10 -145.5t29.5 -95t47.5 -51t63 -15.5q61 0 107 37t69 71v418q-55 59 -92 81t-82 22q-96 0 -124 -82t-28 -240z" />
<glyph unicode="h" horiz-adv-x="1036" d="M100 0v1473l277 40v-595h4q10 10 33.5 35.5t59.5 53t85 48t113 20.5q145 0 206.5 -90t61.5 -276v-709h-276v641q0 113 -23 154t-86 41q-31 0 -59.5 -14.5t-52 -33t-41 -38t-25.5 -29.5v-721h-277z" />
<glyph unicode="i" horiz-adv-x="489" d="M92 1374q0 74 45 121t111 47t110.5 -47t44.5 -121t-45 -120t-110 -46q-66 0 -111 46t-45 120zM106 0v1032l277 41v-1073h-277z" />
<glyph unicode="j" horiz-adv-x="499" d="M-45 -473l12 203q41 4 70 16t46 36.5t25.5 66.5t8.5 106v1077l274 41v-1145q0 -113 -21.5 -191.5t-62.5 -127.5t-103.5 -71.5t-144.5 -22.5q-29 0 -54 4zM96 1374q0 74 46 121t112 47q63 0 108.5 -47t45.5 -121t-45.5 -120t-108.5 -46q-66 0 -112 46t-46 120z" />
<glyph unicode="k" horiz-adv-x="974" d="M102 0v1473l275 40v-917l266 457h309l-338 -469l375 -584h-330l-282 502v-502h-275z" />
<glyph unicode="l" horiz-adv-x="477" d="M100 0v1473l277 40v-1513h-277z" />
<glyph unicode="m" horiz-adv-x="1468" d="M106 0v1053h244l12 -142q12 14 33 41t52.5 54.5t75.5 48t104 20.5q90 0 145 -34.5t78 -127.5q12 18 35.5 45t56.5 53.5t77 45t99 18.5q135 0 194.5 -83t59.5 -281v-711h-274v688q0 70 -16.5 109t-69.5 39q-27 0 -50.5 -13.5t-42 -32t-30.5 -38t-19 -31.5v-721h-264v688 q0 70 -16.5 109t-69.5 39q-27 0 -50.5 -13.5t-41.5 -32t-30.5 -38t-18.5 -31.5v-721h-273z" />
<glyph unicode="n" horiz-adv-x="1040" d="M106 0v1053h244l12 -135h5l35 35q26 26 65 53.5t91 48t118 20.5q145 0 206.5 -90t61.5 -276v-709h-276v641q0 113 -22.5 154t-86.5 41q-31 0 -59.5 -14.5t-52 -33t-41 -38t-25.5 -29.5v-721h-275z" />
<glyph unicode="o" horiz-adv-x="1017" d="M57 526q0 147 32 252t90.5 171.5t142.5 96t186 29.5t185 -29.5t142.5 -96t92.5 -171t33 -252.5q0 -150 -33 -254t-92.5 -170.5t-142.5 -96.5t-185 -30t-186 30t-142.5 96.5t-90.5 170.5t-32 254zM342 526q0 -186 40 -267t126 -81t126 81t40 267q0 184 -40 265t-126 81 t-126 -81t-40 -265z" />
<glyph unicode="p" horiz-adv-x="1044" d="M100 -469v1522h256l13 -140h4q14 20 39.5 48t60.5 53.5t81 43t99 17.5q70 0 130.5 -31.5t105.5 -97t71.5 -167t26.5 -238.5q0 -145 -30.5 -252t-85 -176.5t-128 -103.5t-159.5 -34q-111 0 -209 41v-485h-275zM377 201q57 -27 121 -27q104 0 154 79t50 265 q0 182 -40.5 253t-120.5 71q-27 0 -52.5 -12.5t-48 -31t-39 -39t-24.5 -34.5v-524z" />
<glyph unicode="q" horiz-adv-x="1044" d="M55 506q0 137 30 242.5t81 175t118.5 105.5t143.5 36h6q74 0 132 -46q60 -48 106 -110q6 37 9 72t7 72h254v-1522h-272v586h-2q-18 -23 -46 -47.5t-64 -46t-79 -35t-92 -13.5q-70 0 -130 30t-105.5 94.5t-71 165t-25.5 241.5zM342 530q0 -92 9 -154.5t28.5 -99t49.5 -52 t69 -15.5q27 0 53.5 11t49 27.5t39.5 35t28 34.5v418q-41 49 -86 81t-95 32q-74 0 -109.5 -73t-35.5 -245z" />
<glyph unicode="r" horiz-adv-x="688" d="M106 0v1053h244l15 -142h2q35 72 96 119t131 47q31 0 50.5 -7t29.5 -11l-21 -244q-18 4 -49 13.5t-61 9.5q-41 0 -76 -26t-86 -87v-725h-275z" />
<glyph unicode="s" horiz-adv-x="770" d="M37 57l47 185q12 -4 36.5 -15.5t57.5 -22.5t69 -19.5t70 -8.5q59 0 92 18.5t33 77.5q0 43 -27.5 77t-70.5 65.5t-91 66.5t-91 77t-71 94.5t-28 123.5q0 141 92.5 220t262.5 79q104 0 171.5 -16.5t96.5 -26.5q-4 -51 -8 -101l-8 -100q-23 6 -84.5 22.5t-124.5 16.5 q-131 0 -131 -82q0 -39 29.5 -70.5t73.5 -62t95.5 -64.5t95.5 -76t73.5 -97.5t29.5 -128.5q0 -66 -20.5 -123t-64.5 -99t-112.5 -67t-164.5 -25q-66 0 -119 10.5t-94 24t-70 26.5t-45 21z" />
<glyph unicode="t" horiz-adv-x="677" d="M25 850v203h112v254l275 41v-295h225v-203h-225v-506q0 -68 16 -100.5t64 -32.5q47 0 82.5 14.5t46.5 16.5l26 -197q-12 -4 -33.5 -15.5t-52.5 -23.5t-71.5 -21.5t-90.5 -9.5q-143 0 -202.5 75t-59.5 255v545h-112z" />
<glyph unicode="u" horiz-adv-x="1038" d="M96 342v711h277v-574q0 -76 3 -126t15 -80.5t35 -43t59 -12.5q29 0 55.5 13.5t50 32t41 39t27.5 32.5v719h277v-1053h-240l-16 141l-57 -51q-12 -10 -34 -29.5t-54.5 -38t-74.5 -33t-93 -14.5q-145 0 -208 90.5t-63 276.5z" />
<glyph unicode="v" horiz-adv-x="958" d="M18 1053h283l100 -437l76 -438l76 438l100 437h283l-309 -1053h-299z" />
<glyph unicode="w" horiz-adv-x="1435" d="M23 1053h272l154 -713l159 713h230l168 -713l145 713h262l-278 -1053h-263l-159 684l-172 -684h-252z" />
<glyph unicode="x" horiz-adv-x="935" d="M10 0l299 545l-278 508h297q10 -20 29.5 -69.5t42 -105t43 -108.5t30.5 -84q2 0 12 27l26 66q15 40 33.5 86t34 87t25.5 70t12 31h289l-139 -258q-70 -129 -141 -258l299 -537h-295q-12 23 -35 72t-48.5 107.5t-49 114.5t-35.5 91q-12 -35 -35 -91t-47.5 -114.5 t-46 -107.5t-31.5 -72h-291z" />
<glyph unicode="y" horiz-adv-x="940" d="M14 1053h289q8 -31 21.5 -87.5t30 -126t35 -147.5t34.5 -151.5t29.5 -138t21.5 -107.5q12 66 37 175.5t50.5 223t50 213t36.5 146.5h279l-346 -1112q-33 -104 -77 -173t-90 -114t-90 -70.5t-77 -44.5q-10 14 -27.5 37t-35 47.5t-34 47t-26.5 36.5q12 10 42 29.5 t64.5 52.5t66.5 79t48 109z" />
<glyph unicode="z" horiz-adv-x="784" d="M45 0v178l375 664h-350v211h659v-172l-379 -670h385v-211h-690z" />
<glyph unicode="{" horiz-adv-x="675" d="M88 520v195q29 2 55.5 9t48 24.5t34 46t12.5 75.5v312q0 139 21.5 223t68.5 128t124.5 58.5t190.5 14.5v-176q-70 0 -105.5 -13.5t-51 -44.5t-17.5 -78t-2 -114v-322q0 -178 -148 -240q147 -68 148 -245v-328q0 -74 2 -122t18.5 -76.5t52 -40t103.5 -11.5v-176 q-121 0 -198.5 17.5t-124 64.5t-64.5 130t-18 214v252q0 127 -34 173t-116 50z" />
<glyph unicode="|" horiz-adv-x="546" d="M164 -469v2050h221v-2050h-221z" />
<glyph unicode="}" horiz-adv-x="675" d="M31 -205q68 0 103.5 12.5t53 41t19.5 73.5t2 111v340q0 172 147 239q-147 68 -147 246v322q0 74 -2 122t-19.5 76.5t-53.5 40t-103 11.5v176q117 0 195.5 -15.5t125.5 -60.5t66.5 -125t19.5 -211v-272q0 -63 8.5 -103.5t27 -63t47 -32.5t67.5 -12v-195q-37 -2 -65.5 -11 t-47 -31.5t-28 -61.5t-9.5 -103v-276q0 -139 -22.5 -221t-71.5 -125t-127 -55.5t-186 -12.5v176z" />
<glyph unicode="~" horiz-adv-x="1075" d="M78 719q18 25 48 58.5t68.5 63t85 51t97.5 21.5q61 0 106 -24.5t85 -55t77 -55t80 -24.5q33 0 60.5 10t49 23.5t38 28.5t24.5 26l98 -125q-18 -25 -44.5 -58.5t-61.5 -63.5t-78 -51.5t-98 -21.5q-59 0 -104.5 24.5t-85.5 53.5t-77.5 53.5t-80.5 24.5q-33 0 -64 -11.5 t-55.5 -26.5t-42 -31.5t-25.5 -26.5q-25 35 -49 68.5t-51 68.5z" />
<glyph unicode="&#xa1;" horiz-adv-x="573" d="M131 893q0 76 43 124t109 48t109.5 -48t43.5 -124q0 -78 -44 -125t-109 -47q-66 0 -109 47t-43 125zM133 -393l35 907h246q10 -229 17 -453.5t15 -453.5h-313z" />
<glyph unicode="&#xa2;" horiz-adv-x="808" d="M59 655q0 229 81 358.5t227 168.5q-2 53 -3.5 108.5t-1.5 108.5h205q0 -51 -1 -101.5t-3 -103.5q66 -4 118 -17.5t75 -23.5q-10 -49 -19 -98l-16 -99q-20 8 -70.5 20.5t-107.5 12.5q-100 0 -149.5 -76.5t-49.5 -246.5q0 -164 48 -238t140 -74q66 0 119.5 21.5t75.5 32.5 l64 -172q-12 -4 -33 -16.5t-49.5 -27t-64.5 -26.5t-81 -19q2 -49 3 -99t1 -99h-205q0 51 1.5 101t3.5 102q-145 33 -226.5 155.5t-81.5 347.5z" />
<glyph unicode="&#xa3;" horiz-adv-x="1007" d="M82 618v164h123q-4 45 -6 102.5t-2 102.5q0 193 98 289t285 96q119 0 198.5 -23.5t114.5 -37.5l-35 -197q-27 10 -85 26.5t-128 16.5q-84 0 -121 -44t-37 -140q0 -47 2.5 -97.5t4.5 -93.5h284v-164h-270q2 -33 3 -71.5t1 -77.5q0 -72 -8 -136.5t-27 -119.5h479v-213h-856 v180q47 29 77 64t46 88v131q0 45 -1 83t-3 72h-137z" />
<glyph unicode="&#xa5;" horiz-adv-x="1030" d="M41 1348h307l176 -553q57 158 101.5 290t87.5 263h280q-59 -139 -124.5 -290t-135.5 -296h170v-152h-223q-8 -33 -14.5 -63.5t-12.5 -63.5h250v-151h-256v-332h-278v332h-265v151h258l-26 127h-232v152h172q-59 147 -117.5 293t-117.5 293z" />
<glyph unicode="&#xa6;" horiz-adv-x="546" d="M160 285h225v-754h-225v754zM160 829v752h225v-752h-225z" />
<glyph unicode="&#xa7;" horiz-adv-x="917" d="M90 584q0 45 14.5 86t35 74.5t45 60t46.5 45.5q-49 39 -77.5 93t-28.5 122q0 147 91 227t267 80q117 0 197 -22.5t106 -30.5q-4 -47 -8 -92t-8 -92q-8 2 -30.5 8t-54.5 12t-68.5 11t-69.5 5q-78 0 -114 -29.5t-36 -72.5q0 -41 34 -67.5t83 -51t108.5 -50.5t108.5 -63.5 t83 -94t34 -138.5q0 -45 -13.5 -86t-35 -75.5t-46 -61.5t-44.5 -45q45 -33 75.5 -86t30.5 -123q0 -147 -91 -234.5t-290 -87.5q-70 0 -125 11.5t-98 27t-72.5 30.5t-46.5 24l49 172q12 -4 35 -15.5t54.5 -24t71.5 -21.5t85 -9q66 0 109 33t43 80q0 43 -26 75.5t-95 55.5 q-55 23 -112.5 47t-105.5 62t-79 92.5t-31 138.5zM311 631q0 -47 14.5 -74t45 -46t79 -38.5t115.5 -52.5q18 23 38 54.5t20 74.5q0 76 -55.5 125t-166.5 88q-51 -10 -70.5 -50t-19.5 -81z" />
<glyph unicode="&#xa8;" horiz-adv-x="874" d="M68 1376q0 70 39.5 113t99.5 43q59 0 97 -43t38 -113t-38 -112.5t-97 -42.5t-99 42.5t-40 112.5zM459 1376q0 70 39 113t98 43t99 -43t40 -113t-40 -112.5t-99 -42.5t-98 42.5t-39 112.5z" />
<glyph unicode="&#xa9;" horiz-adv-x="1409" d="M98 672q0 160 46 290t128 222t192.5 142t240.5 50q129 0 239.5 -50t192.5 -142t128 -222.5t46 -289.5q0 -160 -46 -289t-127 -220t-192.5 -141.5t-240.5 -50.5t-241 50.5t-193 141.5t-127 220t-46 289zM260 672q0 -125 34 -225.5t94.5 -171t141 -109.5t172.5 -39 q94 0 175 39t141.5 109.5t95.5 171t35 225.5t-35 225t-95.5 172t-141 111t-175.5 39q-92 0 -172.5 -39t-141 -111t-94.5 -172t-34 -225zM442 668q0 193 74 286t215 93q74 0 113 -13.5t59 -21.5l-12 -66q-6 -33 -14 -67q-14 6 -49 13t-70 7q-72 0 -108 -51t-36 -180 t36 -180.5t108 -51.5q35 0 69.5 7.5t49.5 13.5q8 -35 14 -68l12 -65q-20 -8 -59 -21.5t-113 -13.5q-141 0 -215 93t-74 286z" />
<glyph unicode="&#xaa;" horiz-adv-x="798" d="M53 760q0 86 29 141t79 88t117.5 46.5t143.5 13.5q10 -2 22.5 -3.5t24.5 -1.5v35q0 76 -33 100.5t-86 24.5q-63 0 -119.5 -11t-95.5 -26l-18 160q45 16 118.5 33.5t153.5 17.5q160 0 226.5 -80.5t66.5 -234.5v-551h-182l-13 84q-25 -33 -76 -68.5t-135 -35.5 q-94 0 -158.5 63.5t-64.5 204.5zM262 776q0 -53 22.5 -91t63.5 -38q43 0 74 24.5t47 47.5v199h-88q-63 -4 -91 -46.5t-28 -95.5z" />
<glyph unicode="&#xab;" horiz-adv-x="978" d="M86 549l307 387l127 -111q-51 -68 -100 -137.5t-101 -136.5l203 -275l-129 -120zM467 549l305 385l125 -111l-197 -272q49 -70 99.5 -137.5t99.5 -134.5q-33 -31 -63.5 -62t-63.5 -59q-76 98 -151.5 195.5t-153.5 195.5z" />
<glyph unicode="&#xac;" horiz-adv-x="993" d="M98 555v217h781v-563h-226v346h-555z" />
<glyph unicode="&#xad;" horiz-adv-x="653" d="M74 463v221h506v-221h-506z" />
<glyph unicode="&#xae;" horiz-adv-x="1212" d="M98 979q0 139 39 249.5t107.5 188.5t162 119t199.5 41t198.5 -41t161 -119t107.5 -188.5t39 -249.5t-39 -250t-106.5 -188.5t-160.5 -119.5t-200 -42q-109 0 -202 42t-160.5 119.5t-106.5 188.5t-39 250zM231 979q0 -111 29 -198t79 -146.5t117.5 -90t147.5 -30.5 t147.5 30.5t119 90t80 146.5t28.5 198t-28.5 198t-80 146t-119 91t-147.5 32t-147.5 -32t-117.5 -91t-79 -146t-29 -198zM430 676v604q20 0 57 4t103 4q104 0 161.5 -40t57.5 -148q0 -72 -33 -115t-90 -63l141 -246h-139l-92 184q-29 10 -51 23v-207h-115zM545 983 q51 0 97 25.5t46 83.5q0 53 -20.5 73.5t-67.5 20.5h-55v-203z" />
<glyph unicode="&#xaf;" horiz-adv-x="882" d="M174 1282v164h522v-164h-522z" />
<glyph unicode="&#xb0;" horiz-adv-x="856" d="M104 1087q0 86 25 154t69 116t103 73.5t127 25.5t126 -25.5t101 -73.5t68 -115.5t25 -154.5q0 -86 -24 -154.5t-67 -116.5t-101 -74.5t-128 -26.5t-129 26.5t-102 74.5t-68 116.5t-25 154.5zM289 1087q0 -84 40 -132t99 -48t99 48.5t40 131.5q0 86 -40 132.5t-99 46.5 t-99 -46.5t-40 -132.5z" />
<glyph unicode="&#xb1;" horiz-adv-x="1015" d="M100 14v215h813v-215h-813zM129 688v215h268v291h226v-291h266v-215h-266v-293h-226v293h-268z" />
<glyph unicode="&#xb2;" horiz-adv-x="638" d="M33 440v158l81 87t109.5 130t96 148.5t40.5 142.5t-31.5 93.5t-95.5 27.5q-51 0 -97 -13.5t-62 -21.5l-35 156q25 12 89.5 33.5t154.5 21.5q145 0 223 -68.5t78 -199.5q0 -74 -27 -142.5t-70 -132t-96 -123t-106 -112.5h311v-185h-563z" />
<glyph unicode="&#xb3;" horiz-adv-x="651" d="M12 485l54 140q6 -4 24.5 -12.5t44 -17.5t57 -16.5t66.5 -7.5q72 0 114 33t42 111q0 66 -40 93.5t-112 27.5q-33 0 -62.5 -1t-41.5 -1v145h49q33 0 61.5 3t50.5 13q16 6 43 38t27 89t-37 83t-100 26q-59 0 -108.5 -14.5t-57.5 -18.5l-35 148q20 8 83 26.5t159 18.5 q141 0 221 -59.5t80 -176.5q0 -86 -40 -140t-95 -85q74 -18 120 -72.5t46 -152.5q0 -78 -25 -133.5t-70 -91.5t-107.5 -52t-135.5 -16q-57 0 -104.5 10t-82 23.5t-57.5 24.5z" />
<glyph unicode="&#xb4;" horiz-adv-x="735" d="M207 1284l285 342l155 -149q-80 -78 -160.5 -152t-160.5 -151z" />
<glyph unicode="&#xb5;" horiz-adv-x="1044" d="M100 -469v1522h277v-574q0 -156 27.5 -215t103.5 -59q33 0 60.5 15.5t48 40t31.5 57t14 67.5v668h276v-1053h-248l-10 119q-4 0 -18.5 -22.5t-40 -49.5t-64.5 -49.5t-90 -22.5q-35 0 -56.5 14.5t-39.5 35.5v-494h-271z" />
<glyph unicode="&#xb7;" horiz-adv-x="546" d="M121 686q0 76 44 124t109 48q66 0 109 -48t43 -124q0 -78 -43 -125t-109 -47t-109.5 47t-43.5 125z" />
<glyph unicode="&#xb8;" horiz-adv-x="724" d="M170 -422l55 107q10 -4 38 -22.5t63 -18.5q39 0 62.5 18.5t23.5 54.5q0 27 -26 43.5t-54.5 29.5t-50 25.5t-15.5 34.5l47 154h123q-2 -12 -11 -32.5t-3 -43.5q2 -6 29 -16q25 -12 50 -27.5t46.5 -40t35 -57.5t13.5 -78q0 -98 -67.5 -149.5t-172.5 -51.5q-37 0 -67.5 9.5 t-55 21.5t-41 23.5t-22.5 15.5z" />
<glyph unicode="&#xb9;" horiz-adv-x="512" d="M-8 1167q80 72 153.5 132.5t114.5 89.5h174v-953h-211v725q-37 -35 -74.5 -67.5t-72.5 -61.5z" />
<glyph unicode="&#xba;" horiz-adv-x="806" d="M61 936q0 229 93.5 332.5t248.5 103.5q156 0 249 -103.5t93 -332.5q0 -115 -24.5 -198t-68.5 -136t-107.5 -78.5t-141.5 -25.5t-141 25.5t-107 78.5t-69 136t-25 198zM270 938q0 -264 133 -264t134 262q0 260 -134 260q-133 0 -133 -258z" />
<glyph unicode="&#xbb;" horiz-adv-x="978" d="M78 815l127 119l305 -389l-305 -387l-125 110l196 275zM457 817l127 119l309 -391q-78 -98 -154.5 -194.5t-154.5 -194.5l-125 110q49 70 98 138.5t100 138.5q-51 68 -101 137t-99 137z" />
<glyph unicode="&#xbc;" horiz-adv-x="1617" d="M-8 1167q80 72 153.5 132.5t114.5 89.5h174v-953h-211v725q-37 -35 -74.5 -67.5t-72.5 -61.5zM369 51l649 1239l203 -26l-648 -1241q-53 6 -102 13t-102 15zM922 41v129l249 569h205l-231 -538h160v166l196 28v-194h76v-160h-76v-246h-196v246h-383z" />
<glyph unicode="&#xbd;" horiz-adv-x="1617" d="M-8 1167q80 72 153.5 132.5t114.5 89.5h174v-953h-211v725q-37 -35 -74.5 -67.5t-72.5 -61.5zM369 51l649 1239l203 -26l-648 -1241q-53 6 -102 13t-102 15zM1012 -47q27 29 81 86t109 129t96 148.5t41 142.5t-31.5 93.5t-95.5 27.5q-51 0 -97 -13.5t-62 -21.5l-35 155 q25 12 89 34t155 22q145 0 223 -69t78 -200q0 -74 -27 -142.5t-70 -131.5t-96 -121.5t-106 -111.5h311v-185h-563v158z" />
<glyph unicode="&#xbe;" horiz-adv-x="1800" d="M43 487l53 140q6 -4 24.5 -12.5t44 -17.5t57.5 -16.5t67 -7.5q72 0 113.5 33t41.5 111q0 66 -39.5 93.5t-111.5 27.5q-33 0 -62.5 -1t-42.5 -1v145h50q33 0 61.5 3t50.5 13q14 4 42 37t28 90t-37 83t-100 26q-59 0 -108.5 -14.5t-57.5 -18.5l-35 148q20 8 82.5 26.5 t159.5 18.5q141 0 221 -59.5t80 -176.5q0 -86 -40 -140t-96 -85q74 -18 120 -72.5t46 -152.5q0 -78 -24.5 -133.5t-69.5 -91.5t-107.5 -52t-136.5 -16q-57 0 -104 10t-82 23.5t-57 24.5zM551 51l649 1239l203 -26l-647 -1241q-53 6 -102.5 13t-102.5 15zM1104 41v129 l250 569h205l-232 -538h160v166l196 28v-194h76v-160h-76v-246h-196v246h-383z" />
<glyph unicode="&#xbf;" horiz-adv-x="749" d="M16 -80q0 86 23.5 145.5t58.5 104.5t77 81t77 75t58.5 85t23.5 111v13q18 0 48 2t62.5 5t62.5 6t48 3q0 -10 1 -19.5t1 -19.5q0 -76 -18.5 -130t-46 -97t-59.5 -79t-59.5 -73t-46 -80t-18.5 -100q0 -72 36 -109t118 -37q37 0 71.5 6.5t63.5 15.5t49.5 18.5t28.5 13.5 l49 -203q-12 -8 -37.5 -22.5t-64.5 -29t-93.5 -24.5t-123.5 -10q-80 0 -151 20.5t-124 62.5t-84 107.5t-31 157.5zM291 893q0 76 43 124t108 48q63 0 107.5 -48t44.5 -124q0 -78 -44 -124t-108 -46q-66 0 -108.5 46t-42.5 124z" />
<glyph unicode="&#xc0;" horiz-adv-x="1132" d="M23 0l374 1348h344l369 -1348h-301l-61 233h-377l-62 -233h-286zM414 430h291q-18 88 -40 181.5t-41.5 180.5t-36 163.5t-26.5 131.5q-10 -55 -27.5 -131.5t-37 -163.5t-41 -180.5t-41.5 -181.5zM290 1772l154 149l285 -342l-119 -110z" />
<glyph unicode="&#xc1;" horiz-adv-x="1132" d="M23 0l374 1348h344l369 -1348h-301l-61 233h-377l-62 -233h-286zM414 430h291q-18 88 -40 181.5t-41.5 180.5t-36 163.5t-26.5 131.5q-10 -55 -27.5 -131.5t-37 -163.5t-41 -180.5t-41.5 -181.5zM410 1579l285 342l155 -149q-80 -78 -160.5 -152t-160.5 -151z" />
<glyph unicode="&#xc2;" horiz-adv-x="1132" d="M23 0l374 1348h344l369 -1348h-301l-61 233h-377l-62 -233h-286zM414 430h291q-18 88 -40 181.5t-41.5 180.5t-36 163.5t-26.5 131.5q-10 -55 -27.5 -131.5t-37 -163.5t-41 -180.5t-41.5 -181.5zM248 1669l244 232h133l258 -230l-100 -145l-217 158l-219 -158z" />
<glyph unicode="&#xc3;" horiz-adv-x="1132" d="M23 0l374 1348h344l369 -1348h-301l-61 233h-377l-62 -233h-286zM414 430h291q-18 88 -40 181.5t-41.5 180.5t-36 163.5t-26.5 131.5q-10 -55 -27.5 -131.5t-37 -163.5t-41 -180.5t-41.5 -181.5zM188 1634q18 20 41 53t52.5 62t68.5 50.5t90 21.5q43 0 78 -13.5t65.5 -30 t59.5 -29.5t62 -13q25 0 47 9t40.5 21.5t31 23.5t16.5 17l104 -81q-16 -23 -37.5 -55t-51.5 -62.5t-67.5 -52t-89.5 -21.5q-43 0 -76.5 12.5t-64.5 27.5t-60.5 28.5t-62.5 13.5q-25 0 -48 -8t-41.5 -20.5t-33 -25t-20.5 -20.5z" />
<glyph unicode="&#xc4;" horiz-adv-x="1132" d="M23 0l374 1348h344l369 -1348h-301l-61 233h-377l-62 -233h-286zM414 430h291q-18 88 -40 181.5t-41.5 180.5t-36 163.5t-26.5 131.5q-10 -55 -27.5 -131.5t-37 -163.5t-41 -180.5t-41.5 -181.5zM232 1671q0 70 39.5 113t99.5 43q59 0 97 -43t38 -113t-38 -112.5 t-97 -42.5t-99 42.5t-40 112.5zM623 1671q0 70 39 113t98 43t99 -43t40 -113t-40 -112.5t-99 -42.5t-98 42.5t-39 112.5z" />
<glyph unicode="&#xc5;" horiz-adv-x="1132" d="M23 0l374 1348h344l369 -1348h-301l-61 233h-377l-62 -233h-286zM414 430h291q-18 88 -40 181.5t-41.5 180.5t-36 163.5t-26.5 131.5q-10 -55 -27.5 -131.5t-37 -163.5t-41 -180.5t-41.5 -181.5zM348 1749q0 100 61.5 166t155.5 66q45 0 85 -17.5t68.5 -48.5t46 -74 t17.5 -92q0 -102 -61.5 -168.5t-155.5 -66.5q-96 0 -156.5 66.5t-60.5 168.5zM473 1749q0 -47 25.5 -77.5t66.5 -30.5t65.5 30.5t24.5 77.5t-24.5 77t-65.5 30t-66.5 -30t-25.5 -77z" />
<glyph unicode="&#xc6;" horiz-adv-x="1406" d="M23 0l374 1348h930v-232h-442v-311h336v-217h-336v-357h442v-231h-729v233h-227l-62 -233h-286zM414 430h184v657h-37q-10 -55 -27.5 -131.5t-37 -163.5t-41 -180.5t-41.5 -181.5z" />
<glyph unicode="&#xc7;" horiz-adv-x="976" d="M68 672q0 356 137 529t411 173q63 0 115.5 -8t92.5 -19.5t67 -21.5t39 -14q-10 -53 -19.5 -107.5t-19.5 -107.5q-29 12 -90.5 31.5t-134.5 19.5q-88 0 -145.5 -30t-92.5 -88t-49 -148t-14 -209q0 -121 14 -210t49 -147.5t92.5 -88t145.5 -29.5q74 0 135 19.5t90 31.5 q10 -53 19.5 -107.5t19.5 -107.5q-12 -4 -39 -14.5t-67 -21.5t-92 -19.5t-116 -8.5h-18q-8 -23 -2 -41q2 -6 29 -16q25 -12 50 -27.5t46.5 -40t35 -57.5t13.5 -78q0 -98 -67.5 -149.5t-172.5 -51.5q-37 0 -67.5 9.5t-55 21.5t-41 23.5t-22.5 15.5l55 107q10 -4 38 -22.5 t63 -18.5q39 0 62.5 18.5t23.5 54.5q0 27 -25.5 43.5t-54.5 29.5t-50.5 25.5t-15.5 34.5l39 132q-411 80 -411 690z" />
<glyph unicode="&#xc8;" horiz-adv-x="921" d="M127 0v1348h729v-232h-442v-311h336v-217h-336v-357h442v-231h-729zM241 1772l154 149l285 -342l-119 -110z" />
<glyph unicode="&#xc9;" horiz-adv-x="921" d="M127 0v1348h729v-232h-442v-311h336v-217h-336v-357h442v-231h-729zM326 1579l285 342l155 -149q-80 -78 -160.5 -152t-160.5 -151z" />
<glyph unicode="&#xca;" horiz-adv-x="921" d="M127 0v1348h729v-232h-442v-311h336v-217h-336v-357h442v-231h-729zM143 1669l244 232h133l258 -230l-100 -145l-217 158l-219 -158z" />
<glyph unicode="&#xcb;" horiz-adv-x="921" d="M127 0v1348h729v-232h-442v-311h336v-217h-336v-357h442v-231h-729zM127 1671q0 70 39.5 113t99.5 43q59 0 97 -43t38 -113t-38 -112.5t-97 -42.5t-99 42.5t-40 112.5zM518 1671q0 70 39 113t98 43t99 -43t40 -113t-40 -112.5t-99 -42.5t-98 42.5t-39 112.5z" />
<glyph unicode="&#xcc;" horiz-adv-x="540" d="M127 0v1348h285v-1348h-285zM53 1772l154 149l285 -342l-119 -110z" />
<glyph unicode="&#xcd;" horiz-adv-x="540" d="M127 0v1348h285v-1348h-285zM53 1579l285 342l155 -149q-80 -78 -160.5 -152t-160.5 -151z" />
<glyph unicode="&#xce;" horiz-adv-x="540" d="M127 0v1348h285v-1348h-285zM-45 1669l244 232h133l258 -230l-100 -145l-217 158l-219 -158z" />
<glyph unicode="&#xcf;" horiz-adv-x="540" d="M127 0v1348h285v-1348h-285zM-61 1671q0 70 39.5 113t99.5 43q59 0 97 -43t38 -113t-38 -112.5t-97 -42.5t-99 42.5t-40 112.5zM330 1671q0 70 39 113t98 43t99 -43t40 -113t-40 -112.5t-99 -42.5t-98 42.5t-39 112.5z" />
<glyph unicode="&#xd0;" horiz-adv-x="1138" d="M0 553v221h127v574q49 0 142 6t214 6q141 0 251 -30t184.5 -106.5t113.5 -209.5t39 -342q0 -205 -39 -337t-113.5 -210t-184 -108.5t-251.5 -30.5q-119 0 -213 7t-143 7v553h-127zM412 211q23 -2 47 -2h51q141 0 204.5 115.5t63.5 347.5q0 242 -63.5 353.5t-206.5 111.5 q-23 0 -47.5 -1t-48.5 -3v-359h94v-221h-94v-342z" />
<glyph unicode="&#xd1;" horiz-adv-x="1183" d="M127 0v1348h256q109 -211 214 -423t212 -423h4q0 20 -3 63t-3 86v697h250v-1348h-254l-430 850h-2q0 -20 3 -62.5t3 -89.5v-698h-250zM213 1634q18 20 41 53t52.5 62t68.5 50.5t90 21.5q43 0 78 -13.5t65.5 -30t59.5 -29.5t62 -13q25 0 47 9t40.5 21.5t31 23.5t16.5 17 l104 -81q-16 -23 -37.5 -55t-51.5 -62.5t-67.5 -52t-89.5 -21.5q-43 0 -76.5 12.5t-64.5 27.5t-60.5 28.5t-62.5 13.5q-25 0 -48 -8t-41.5 -20.5t-33 -25t-20.5 -20.5z" />
<glyph unicode="&#xd2;" d="M68 674q0 358 133 528t381 170t382 -170t134 -528t-134.5 -529.5t-381.5 -171.5q-248 0 -381 171.5t-133 529.5zM360 674q0 -225 51.5 -349t170.5 -124q121 0 173 124t52 349t-53.5 348t-171.5 123q-117 0 -169.5 -123t-52.5 -348zM276 1772l154 149l285 -342l-119 -110z " />
<glyph unicode="&#xd3;" d="M68 674q0 358 133 528t381 170t382 -170t134 -528t-134.5 -529.5t-381.5 -171.5q-248 0 -381 171.5t-133 529.5zM360 674q0 -225 51.5 -349t170.5 -124q121 0 173 124t52 349t-53.5 348t-171.5 123q-117 0 -169.5 -123t-52.5 -348zM447 1579l285 342l155 -149 q-80 -78 -160.5 -152t-160.5 -151z" />
<glyph unicode="&#xd4;" d="M68 674q0 358 133 528t381 170t382 -170t134 -528t-134.5 -529.5t-381.5 -171.5q-248 0 -381 171.5t-133 529.5zM360 674q0 -225 51.5 -349t170.5 -124q121 0 173 124t52 349t-53.5 348t-171.5 123q-117 0 -169.5 -123t-52.5 -348zM266 1669l244 232h133l258 -230 l-100 -145l-217 158l-219 -158z" />
<glyph unicode="&#xd5;" d="M68 674q0 358 133 528t381 170t382 -170t134 -528t-134.5 -529.5t-381.5 -171.5q-248 0 -381 171.5t-133 529.5zM360 674q0 -225 51.5 -349t170.5 -124q121 0 173 124t52 349t-53.5 348t-171.5 123q-117 0 -169.5 -123t-52.5 -348zM204 1634q18 20 41 53t52.5 62 t68.5 50.5t90 21.5q43 0 78 -13.5t65.5 -30t59.5 -29.5t62 -13q25 0 47 9t40.5 21.5t31 23.5t16.5 17l104 -81q-16 -23 -37.5 -55t-51.5 -62.5t-67.5 -52t-89.5 -21.5q-43 0 -76.5 12.5t-64.5 27.5t-60.5 28.5t-62.5 13.5q-25 0 -48 -8t-41.5 -20.5t-33 -25t-20.5 -20.5z " />
<glyph unicode="&#xd6;" d="M68 674q0 358 133 528t381 170t382 -170t134 -528t-134.5 -529.5t-381.5 -171.5q-248 0 -381 171.5t-133 529.5zM360 674q0 -225 51.5 -349t170.5 -124q121 0 173 124t52 349t-53.5 348t-171.5 123q-117 0 -169.5 -123t-52.5 -348zM250 1671q0 70 39.5 113t99.5 43 q59 0 97 -43t38 -113t-38 -112.5t-97 -42.5t-99 42.5t-40 112.5zM641 1671q0 70 39 113t98 43t99 -43t40 -113t-40 -112.5t-99 -42.5t-98 42.5t-39 112.5z" />
<glyph unicode="&#xd8;" d="M23 59l122 177q-78 168 -77 438q0 358 133 528t381 170q180 0 297 -86l84 119l182 -127l-123 -176q37 -82 56.5 -187.5t19.5 -240.5q0 -358 -134.5 -529.5t-381.5 -171.5q-176 0 -291 82l-86 -123zM360 608q0 -31 5 -59l362 518q-55 78 -145 78q-117 0 -169.5 -123 t-52.5 -348v-66zM440 272q53 -72 142 -71q121 0 173 124t52 349q0 31 -1 59.5t-3 54.5z" />
<glyph unicode="&#xd9;" horiz-adv-x="1134" d="M111 633v715h284v-715q0 -113 5.5 -194t22.5 -134t51 -78.5t93 -25.5t93 25.5t51.5 78.5t21.5 134t4 194v715h281v-715q0 -178 -23.5 -304t-77 -205t-139.5 -115t-211 -36q-123 0 -210 36t-142 115t-79.5 205t-24.5 304zM256 1772l154 149l285 -342l-119 -110z" />
<glyph unicode="&#xda;" horiz-adv-x="1134" d="M111 633v715h284v-715q0 -113 5.5 -194t22.5 -134t51 -78.5t93 -25.5t93 25.5t51.5 78.5t21.5 134t4 194v715h281v-715q0 -178 -23.5 -304t-77 -205t-139.5 -115t-211 -36q-123 0 -210 36t-142 115t-79.5 205t-24.5 304zM453 1579l285 342l155 -149q-80 -78 -160.5 -152 t-160.5 -151z" />
<glyph unicode="&#xdb;" horiz-adv-x="1134" d="M111 633v715h284v-715q0 -113 5.5 -194t22.5 -134t51 -78.5t93 -25.5t93 25.5t51.5 78.5t21.5 134t4 194v715h281v-715q0 -178 -23.5 -304t-77 -205t-139.5 -115t-211 -36q-123 0 -210 36t-142 115t-79.5 205t-24.5 304zM250 1669l244 232h133l258 -230l-100 -145 l-217 158l-219 -158z" />
<glyph unicode="&#xdc;" horiz-adv-x="1134" d="M111 633v715h284v-715q0 -113 5.5 -194t22.5 -134t51 -78.5t93 -25.5t93 25.5t51.5 78.5t21.5 134t4 194v715h281v-715q0 -178 -23.5 -304t-77 -205t-139.5 -115t-211 -36q-123 0 -210 36t-142 115t-79.5 205t-24.5 304zM234 1671q0 70 39.5 113t99.5 43q59 0 97 -43 t38 -113t-38 -112.5t-97 -42.5t-99 42.5t-40 112.5zM625 1671q0 70 39 113t98 43t99 -43t40 -113t-40 -112.5t-99 -42.5t-98 42.5t-39 112.5z" />
<glyph unicode="&#xdd;" horiz-adv-x="1081" d="M-4 1348h305q35 -94 72 -191.5t68.5 -184.5t58 -159t41.5 -113q14 41 40.5 113t58.5 159t68.5 184t71.5 192h305q-92 -207 -183 -412t-183 -410l-35 -82v-444h-285v444l-37 82q-92 205 -183 410t-183 412zM320 1579l285 342l155 -149q-80 -78 -160.5 -152t-160.5 -151z " />
<glyph unicode="&#xde;" horiz-adv-x="1015" d="M127 0v1348h279v-203q18 2 36 2h37q262 0 374 -118t112 -343q0 -129 -36 -217t-99.5 -142.5t-147.5 -78t-182 -23.5q-51 0 -94 6v-231h-279zM406 440q16 -2 34 -2h39q88 0 143.5 53.5t55.5 192.5q0 125 -49 184.5t-140 59.5h-39q-22 0 -44 -2v-486z" />
<glyph unicode="&#xdf;" horiz-adv-x="1097" d="M100 0v1096q0 119 31 202.5t86 137t132 77t171 23.5q182 0 278.5 -82t96.5 -266q0 -70 -19.5 -120t-46 -89t-53 -72t-41.5 -69q31 -37 83 -77t103.5 -92.5t89.5 -122t38 -167.5q0 -193 -95.5 -298.5t-267.5 -105.5q-94 0 -151.5 24t-85.5 36l36 180q14 -4 50 -19.5 t90 -15.5q59 0 93 34t34 114q0 43 -8.5 87t-31 82t-61.5 65.5t-98 35.5q-33 49 -58.5 105.5t-25.5 132.5q0 37 24.5 65.5t54.5 62t54.5 78.5t24.5 117q0 78 -28 121t-87 43q-72 0 -103.5 -52t-31.5 -179v-1092h-277z" />
<glyph unicode="&#xe0;" horiz-adv-x="956" d="M47 293q0 195 123 278.5t367 83.5l47 -4v25q0 63 -13.5 101t-37 58.5t-55.5 26.5t-70 6q-70 0 -142.5 -15t-113.5 -30l-31 189q25 8 60.5 19t79.5 20.5t93 16.5t101 7q211 0 307 -99t96 -308v-668h-254q-4 29 -7 57.5t-7 57.5q-10 -10 -28.5 -33t-49.5 -46.5t-77 -42 t-107 -18.5q-57 0 -108.5 18.5t-89.5 57.5t-60.5 98.5t-22.5 143.5zM313 326q0 -72 29 -111t90 -39q33 0 57.5 9.5t43 23.5t30.5 30l21 25v232h-28q-13 0 -28 2q-117 0 -166 -37t-49 -135zM192 1477l154 149l285 -342l-119 -110z" />
<glyph unicode="&#xe1;" horiz-adv-x="956" d="M47 293q0 195 123 278.5t367 83.5l47 -4v25q0 63 -13.5 101t-37 58.5t-55.5 26.5t-70 6q-70 0 -142.5 -15t-113.5 -30l-31 189q25 8 60.5 19t79.5 20.5t93 16.5t101 7q211 0 307 -99t96 -308v-668h-254q-4 29 -7 57.5t-7 57.5q-10 -10 -28.5 -33t-49.5 -46.5t-77 -42 t-107 -18.5q-57 0 -108.5 18.5t-89.5 57.5t-60.5 98.5t-22.5 143.5zM313 326q0 -72 29 -111t90 -39q33 0 57.5 9.5t43 23.5t30.5 30l21 25v232h-28q-13 0 -28 2q-117 0 -166 -37t-49 -135zM316 1284l285 342l155 -149q-80 -78 -160.5 -152t-160.5 -151z" />
<glyph unicode="&#xe2;" horiz-adv-x="956" d="M47 293q0 195 123 278.5t367 83.5l47 -4v25q0 63 -13.5 101t-37 58.5t-55.5 26.5t-70 6q-70 0 -142.5 -15t-113.5 -30l-31 189q25 8 60.5 19t79.5 20.5t93 16.5t101 7q211 0 307 -99t96 -308v-668h-254q-4 29 -7 57.5t-7 57.5q-10 -10 -28.5 -33t-49.5 -46.5t-77 -42 t-107 -18.5q-57 0 -108.5 18.5t-89.5 57.5t-60.5 98.5t-22.5 143.5zM313 326q0 -72 29 -111t90 -39q33 0 57.5 9.5t43 23.5t30.5 30l21 25v232h-28q-13 0 -28 2q-117 0 -166 -37t-49 -135zM159 1374l244 232h133l258 -230l-100 -145l-217 158l-219 -158z" />
<glyph unicode="&#xe3;" horiz-adv-x="956" d="M47 293q0 195 123 278.5t367 83.5l47 -4v25q0 63 -13.5 101t-37 58.5t-55.5 26.5t-70 6q-70 0 -142.5 -15t-113.5 -30l-31 189q25 8 60.5 19t79.5 20.5t93 16.5t101 7q211 0 307 -99t96 -308v-668h-254q-4 29 -7 57.5t-7 57.5q-10 -10 -28.5 -33t-49.5 -46.5t-77 -42 t-107 -18.5q-57 0 -108.5 18.5t-89.5 57.5t-60.5 98.5t-22.5 143.5zM313 326q0 -72 29 -111t90 -39q33 0 57.5 9.5t43 23.5t30.5 30l21 25v232h-28q-13 0 -28 2q-117 0 -166 -37t-49 -135zM100 1339q18 20 41 53t52.5 62t68.5 50.5t90 21.5q43 0 78 -13.5t65.5 -30 t59.5 -29.5t62 -13q25 0 47 9t40.5 21.5t31 23.5t16.5 17l104 -81q-16 -23 -37.5 -55t-51.5 -62.5t-67.5 -52t-89.5 -21.5q-43 0 -76.5 12.5t-64.5 27.5t-60.5 28.5t-62.5 13.5q-25 0 -48 -8t-41.5 -20.5t-33 -25t-20.5 -20.5z" />
<glyph unicode="&#xe4;" horiz-adv-x="956" d="M47 293q0 195 123 278.5t367 83.5l47 -4v25q0 63 -13.5 101t-37 58.5t-55.5 26.5t-70 6q-70 0 -142.5 -15t-113.5 -30l-31 189q25 8 60.5 19t79.5 20.5t93 16.5t101 7q211 0 307 -99t96 -308v-668h-254q-4 29 -7 57.5t-7 57.5q-10 -10 -28.5 -33t-49.5 -46.5t-77 -42 t-107 -18.5q-57 0 -108.5 18.5t-89.5 57.5t-60.5 98.5t-22.5 143.5zM313 326q0 -72 29 -111t90 -39q33 0 57.5 9.5t43 23.5t30.5 30l21 25v232h-28q-13 0 -28 2q-117 0 -166 -37t-49 -135zM144 1376q0 70 39.5 113t99.5 43q59 0 97 -43t38 -113t-38 -112.5t-97 -42.5 t-99 42.5t-40 112.5zM535 1376q0 70 39 113t98 43t99 -43t40 -113t-40 -112.5t-99 -42.5t-98 42.5t-39 112.5z" />
<glyph unicode="&#xe5;" horiz-adv-x="956" d="M47 293q0 195 123 278.5t367 83.5l47 -4v25q0 63 -13.5 101t-37 58.5t-55.5 26.5t-70 6q-70 0 -142.5 -15t-113.5 -30l-31 189q25 8 60.5 19t79.5 20.5t93 16.5t101 7q211 0 307 -99t96 -308v-668h-254q-4 29 -7 57.5t-7 57.5q-10 -10 -28.5 -33t-49.5 -46.5t-77 -42 t-107 -18.5q-57 0 -108.5 18.5t-89.5 57.5t-60.5 98.5t-22.5 143.5zM313 326q0 -72 29 -111t90 -39q33 0 57.5 9.5t43 23.5t30.5 30l21 25v232h-28q-13 0 -28 2q-117 0 -166 -37t-49 -135zM260 1454q0 100 61.5 166t155.5 66q45 0 85 -17.5t68.5 -48.5t46 -74t17.5 -92 q0 -102 -61.5 -168.5t-155.5 -66.5q-96 0 -156.5 66.5t-60.5 168.5zM385 1454q0 -47 25.5 -77.5t66.5 -30.5t65.5 30.5t24.5 77.5t-24.5 77t-65.5 30t-66.5 -30t-25.5 -77z" />
<glyph unicode="&#xe6;" horiz-adv-x="1462" d="M47 293q0 195 123 278.5t367 83.5l47 -4v25q0 63 -13.5 101t-37 58.5t-55.5 26.5t-70 6q-70 0 -142.5 -15t-113.5 -30l-31 189q25 8 60.5 19t79.5 20.5t93 16.5t101 7q215 0 301 -137q49 70 113.5 103.5t138.5 33.5q88 0 160.5 -27.5t125 -88t82 -152.5t29.5 -221 q0 -55 -5 -95t-7 -49h-535q2 -137 61.5 -197.5t147.5 -60.5q82 0 148.5 28t103.5 44l55 -180q-12 -8 -40.5 -24.5t-75 -34t-107.5 -30t-137 -12.5q-92 0 -168 41t-127 134q-70 -92 -172.5 -133.5t-218.5 -41.5q-57 0 -108.5 18.5t-89.5 57.5t-60.5 98.5t-22.5 143.5z M313 326q0 -72 29 -111t90 -39q33 0 57.5 9.5t43 23.5t30.5 30l21 25v232h-28q-13 0 -28 2q-117 0 -166 -37t-49 -135zM858 614h281q0 78 -10.5 129.5t-28 81t-42 42t-52.5 12.5q-27 0 -53.5 -13.5t-47 -44t-34 -82t-13.5 -125.5z" />
<glyph unicode="&#xe7;" horiz-adv-x="788" d="M57 510q0 287 114 426t331 139q86 0 151.5 -16.5t94.5 -26.5l-33 -203q-20 8 -69.5 20.5t-104.5 12.5q-102 0 -150.5 -81t-48.5 -261q0 -182 50 -256t140 -74q63 0 114.5 24t74.5 32l63 -176q-14 -6 -39.5 -21.5t-62.5 -31t-85 -29t-105 -13.5q-10 -23 -5 -47 q2 -6 29 -16q25 -12 50.5 -27.5t47 -40t35 -57.5t13.5 -78q0 -98 -68 -149.5t-172 -51.5q-37 0 -67.5 9.5t-55.5 21.5t-41 23.5t-22 15.5l55 107q10 -4 37.5 -22.5t62.5 -18.5q39 0 62.5 18.5t23.5 54.5q0 27 -25.5 43.5t-54 29.5t-50 25.5t-15.5 34.5l41 136 q-154 31 -235 159.5t-81 364.5z" />
<glyph unicode="&#xe8;" horiz-adv-x="935" d="M57 498q0 147 34 255.5t91.5 180.5t134 106.5t164.5 34.5t161 -27.5t125 -88t82 -152.5t30 -221q0 -55 -5.5 -95t-7.5 -49h-534q2 -137 61.5 -197.5t147.5 -60.5q82 0 148.5 28t103.5 44l55 -180q-12 -8 -41 -24.5t-75 -34t-107.5 -30t-137.5 -12.5q-90 0 -167.5 30 t-136 93.5t-92.5 162t-34 237.5zM332 614h280q0 78 -10 129.5t-27.5 81t-42 42t-53.5 12.5q-27 0 -53.5 -13.5t-47 -44t-33.5 -82t-13 -125.5zM247 1477l154 149l285 -342l-119 -110z" />
<glyph unicode="&#xe9;" horiz-adv-x="935" d="M57 498q0 147 34 255.5t91.5 180.5t134 106.5t164.5 34.5t161 -27.5t125 -88t82 -152.5t30 -221q0 -55 -5.5 -95t-7.5 -49h-534q2 -137 61.5 -197.5t147.5 -60.5q82 0 148.5 28t103.5 44l55 -180q-12 -8 -41 -24.5t-75 -34t-107.5 -30t-137.5 -12.5q-90 0 -167.5 30 t-136 93.5t-92.5 162t-34 237.5zM332 614h280q0 78 -10 129.5t-27.5 81t-42 42t-53.5 12.5q-27 0 -53.5 -13.5t-47 -44t-33.5 -82t-13 -125.5zM363 1284l285 342l155 -149q-80 -78 -160.5 -152t-160.5 -151z" />
<glyph unicode="&#xea;" horiz-adv-x="935" d="M57 498q0 147 34 255.5t91.5 180.5t134 106.5t164.5 34.5t161 -27.5t125 -88t82 -152.5t30 -221q0 -55 -5.5 -95t-7.5 -49h-534q2 -137 61.5 -197.5t147.5 -60.5q82 0 148.5 28t103.5 44l55 -180q-12 -8 -41 -24.5t-75 -34t-107.5 -30t-137.5 -12.5q-90 0 -167.5 30 t-136 93.5t-92.5 162t-34 237.5zM332 614h280q0 78 -10 129.5t-27.5 81t-42 42t-53.5 12.5q-27 0 -53.5 -13.5t-47 -44t-33.5 -82t-13 -125.5zM149 1374l244 232h133l258 -230l-100 -145l-217 158l-219 -158z" />
<glyph unicode="&#xeb;" horiz-adv-x="935" d="M57 498q0 147 34 255.5t91.5 180.5t134 106.5t164.5 34.5t161 -27.5t125 -88t82 -152.5t30 -221q0 -55 -5.5 -95t-7.5 -49h-534q2 -137 61.5 -197.5t147.5 -60.5q82 0 148.5 28t103.5 44l55 -180q-12 -8 -41 -24.5t-75 -34t-107.5 -30t-137.5 -12.5q-90 0 -167.5 30 t-136 93.5t-92.5 162t-34 237.5zM332 614h280q0 78 -10 129.5t-27.5 81t-42 42t-53.5 12.5q-27 0 -53.5 -13.5t-47 -44t-33.5 -82t-13 -125.5zM134 1376q0 70 39.5 113t99.5 43q59 0 97 -43t38 -113t-38 -112.5t-97 -42.5t-99 42.5t-40 112.5zM525 1376q0 70 39 113t98 43 t99 -43t40 -113t-40 -112.5t-99 -42.5t-98 42.5t-39 112.5z" />
<glyph unicode="&#xec;" horiz-adv-x="489" d="M106 0v1053h277v-1053h-277zM-54 1477l154 149l285 -342l-119 -110z" />
<glyph unicode="&#xed;" horiz-adv-x="489" d="M106 0v1053h277v-1053h-277zM115 1284l285 342l155 -149q-80 -78 -160.5 -152t-160.5 -151z" />
<glyph unicode="&#xee;" horiz-adv-x="489" d="M106 0v1053h277v-1053h-277zM-70 1374l244 232h133l258 -230l-100 -145l-217 158l-219 -158z" />
<glyph unicode="&#xef;" horiz-adv-x="489" d="M106 0v1053h277v-1053h-277zM-86 1376q0 70 39.5 113t99.5 43q59 0 97 -43t38 -113t-38 -112.5t-97 -42.5t-99 42.5t-40 112.5zM305 1376q0 70 39 113t98 43t99 -43t40 -113t-40 -112.5t-99 -42.5t-98 42.5t-39 112.5z" />
<glyph unicode="&#xf0;" horiz-adv-x="983" d="M59 510q0 240 100.5 355.5t270.5 115.5q45 0 83 -11.5t66.5 -27.5t48 -34.5t29.5 -33.5q-10 66 -28.5 116t-47 91t-69.5 75t-94 69l-88 -138l-140 97l80 125l-151 84l106 194l166 -86l90 141l140 -96l-82 -129q94 -61 167.5 -133t124 -170t77 -229t26.5 -310 q0 -178 -31 -294.5t-86 -184t-135 -95.5t-178 -28q-100 0 -182 32t-140.5 98.5t-90.5 167t-32 239.5zM342 494q0 -154 35 -232t121 -78q84 0 118.5 76t34.5 252q0 61 -2 112.5t-17.5 88.5t-47 57.5t-90.5 20.5q-84 0 -118 -71.5t-34 -225.5z" />
<glyph unicode="&#xf1;" horiz-adv-x="1040" d="M106 0v1053h244l12 -135h5l35 35q26 26 65 53.5t91 48t118 20.5q145 0 206.5 -90t61.5 -276v-709h-276v641q0 113 -22.5 154t-86.5 41q-31 0 -59.5 -14.5t-52 -33t-41 -38t-25.5 -29.5v-721h-275zM141 1339q18 20 41 53t52.5 62t68.5 50.5t90 21.5q43 0 78 -13.5 t65.5 -30t59.5 -29.5t62 -13q25 0 47 9t40.5 21.5t31 23.5t16.5 17l104 -81q-16 -23 -37.5 -55t-51.5 -62.5t-67.5 -52t-89.5 -21.5q-43 0 -76.5 12.5t-64.5 27.5t-60.5 28.5t-62.5 13.5q-25 0 -48 -8t-41.5 -20.5t-33 -25t-20.5 -20.5z" />
<glyph unicode="&#xf2;" horiz-adv-x="1017" d="M57 526q0 147 32 252t90.5 171.5t142.5 96t186 29.5t185 -29.5t142.5 -96t92.5 -171t33 -252.5q0 -150 -33 -254t-92.5 -170.5t-142.5 -96.5t-185 -30t-186 30t-142.5 96.5t-90.5 170.5t-32 254zM342 526q0 -186 40 -267t126 -81t126 81t40 267q0 184 -40 265t-126 81 t-126 -81t-40 -265zM217 1477l154 149l285 -342l-119 -110z" />
<glyph unicode="&#xf3;" horiz-adv-x="1017" d="M57 526q0 147 32 252t90.5 171.5t142.5 96t186 29.5t185 -29.5t142.5 -96t92.5 -171t33 -252.5q0 -150 -33 -254t-92.5 -170.5t-142.5 -96.5t-185 -30t-186 30t-142.5 96.5t-90.5 170.5t-32 254zM342 526q0 -186 40 -267t126 -81t126 81t40 267q0 184 -40 265t-126 81 t-126 -81t-40 -265zM359 1284l285 342l155 -149q-80 -78 -160.5 -152t-160.5 -151z" />
<glyph unicode="&#xf4;" horiz-adv-x="1017" d="M57 526q0 147 32 252t90.5 171.5t142.5 96t186 29.5t185 -29.5t142.5 -96t92.5 -171t33 -252.5q0 -150 -33 -254t-92.5 -170.5t-142.5 -96.5t-185 -30t-186 30t-142.5 96.5t-90.5 170.5t-32 254zM342 526q0 -186 40 -267t126 -81t126 81t40 267q0 184 -40 265t-126 81 t-126 -81t-40 -265zM190 1374l244 232h133l258 -230l-100 -145l-217 158l-219 -158z" />
<glyph unicode="&#xf5;" horiz-adv-x="1017" d="M57 526q0 147 32 252t90.5 171.5t142.5 96t186 29.5t185 -29.5t142.5 -96t92.5 -171t33 -252.5q0 -150 -33 -254t-92.5 -170.5t-142.5 -96.5t-185 -30t-186 30t-142.5 96.5t-90.5 170.5t-32 254zM342 526q0 -186 40 -267t126 -81t126 81t40 267q0 184 -40 265t-126 81 t-126 -81t-40 -265zM131 1339q18 20 41 53t52.5 62t68.5 50.5t90 21.5q43 0 78 -13.5t65.5 -30t59.5 -29.5t62 -13q25 0 47 9t40.5 21.5t31 23.5t16.5 17l104 -81q-16 -23 -37.5 -55t-51.5 -62.5t-67.5 -52t-89.5 -21.5q-43 0 -76.5 12.5t-64.5 27.5t-60.5 28.5t-62.5 13.5 q-25 0 -48 -8t-41.5 -20.5t-33 -25t-20.5 -20.5z" />
<glyph unicode="&#xf6;" horiz-adv-x="1017" d="M57 526q0 147 32 252t90.5 171.5t142.5 96t186 29.5t185 -29.5t142.5 -96t92.5 -171t33 -252.5q0 -150 -33 -254t-92.5 -170.5t-142.5 -96.5t-185 -30t-186 30t-142.5 96.5t-90.5 170.5t-32 254zM342 526q0 -186 40 -267t126 -81t126 81t40 267q0 184 -40 265t-126 81 t-126 -81t-40 -265zM174 1376q0 70 39.5 113t99.5 43q59 0 97 -43t38 -113t-38 -112.5t-97 -42.5t-99 42.5t-40 112.5zM565 1376q0 70 39 113t98 43t99 -43t40 -113t-40 -112.5t-99 -42.5t-98 42.5t-39 112.5z" />
<glyph unicode="&#xf7;" horiz-adv-x="1015" d="M90 508v215h834v-215h-834zM356 236q0 76 44 121.5t108 45.5q63 0 106 -46t43 -121q0 -78 -43 -124t-106 -46t-107.5 46t-44.5 124zM356 1065q0 76 43 123t107 47q63 0 106 -47t43 -123t-43 -122t-106 -46t-106.5 46t-43.5 122z" />
<glyph unicode="&#xf8;" horiz-adv-x="1017" d="M45 51l84 121q-72 131 -72 354q0 147 32 252t90.5 171.5t142.5 96t186 29.5q61 0 117.5 -11t103.5 -34l62 88l180 -127l-82 -119q35 -63 53.5 -149t18.5 -197q0 -150 -33 -254t-92.5 -170.5t-142.5 -96.5t-185 -30q-125 0 -217 43l-66 -94zM342 477l254 365 q-35 31 -88 30q-86 0 -126 -80.5t-40 -265.5v-49zM422 207q31 -29 86 -29q86 0 126 81t40 267v39z" />
<glyph unicode="&#xf9;" horiz-adv-x="1038" d="M96 342v711h277v-574q0 -76 3 -126t15 -80.5t35 -43t59 -12.5q29 0 55.5 13.5t50 32t41 39t27.5 32.5v719h277v-1053h-240l-16 141l-57 -51q-12 -10 -34 -29.5t-54.5 -38t-74.5 -33t-93 -14.5q-145 0 -208 90.5t-63 276.5zM192 1477l154 149l285 -342l-119 -110z" />
<glyph unicode="&#xfa;" horiz-adv-x="1038" d="M96 342v711h277v-574q0 -76 3 -126t15 -80.5t35 -43t59 -12.5q29 0 55.5 13.5t50 32t41 39t27.5 32.5v719h277v-1053h-240l-16 141l-57 -51q-12 -10 -34 -29.5t-54.5 -38t-74.5 -33t-93 -14.5q-145 0 -208 90.5t-63 276.5zM377 1284l285 342l155 -149 q-80 -78 -160.5 -152t-160.5 -151z" />
<glyph unicode="&#xfb;" horiz-adv-x="1038" d="M96 342v711h277v-574q0 -76 3 -126t15 -80.5t35 -43t59 -12.5q29 0 55.5 13.5t50 32t41 39t27.5 32.5v719h277v-1053h-240l-16 141l-57 -51q-12 -10 -34 -29.5t-54.5 -38t-74.5 -33t-93 -14.5q-145 0 -208 90.5t-63 276.5zM200 1374l244 232h133l258 -230l-100 -145 l-217 158l-219 -158z" />
<glyph unicode="&#xfc;" horiz-adv-x="1038" d="M96 342v711h277v-574q0 -76 3 -126t15 -80.5t35 -43t59 -12.5q29 0 55.5 13.5t50 32t41 39t27.5 32.5v719h277v-1053h-240l-16 141l-57 -51q-12 -10 -34 -29.5t-54.5 -38t-74.5 -33t-93 -14.5q-145 0 -208 90.5t-63 276.5zM185 1376q0 70 39.5 113t99.5 43q59 0 97 -43 t38 -113t-38 -112.5t-97 -42.5t-99 42.5t-40 112.5zM576 1376q0 70 39 113t98 43t99 -43t40 -113t-40 -112.5t-99 -42.5t-98 42.5t-39 112.5z" />
<glyph unicode="&#xfd;" horiz-adv-x="940" d="M14 1053h289q8 -31 21.5 -87.5t30 -126t35 -147.5t34.5 -151.5t29.5 -138t21.5 -107.5q12 66 37 175.5t50.5 223t50 213t36.5 146.5h279l-346 -1112q-33 -104 -77 -173t-90 -114t-90 -70.5t-77 -44.5q-10 14 -27.5 37t-35 47.5t-34 47t-26.5 36.5q12 10 42 29.5 t64.5 52.5t66.5 79t48 109zM354 1284l285 342l155 -149q-80 -78 -160.5 -152t-160.5 -151z" />
<glyph unicode="&#xfe;" horiz-adv-x="1044" d="M100 -469v1942l275 40v-587h4q20 25 48 51.5t63.5 48t76.5 35.5t88 14q68 0 128.5 -30.5t105.5 -96t71.5 -167t26.5 -242.5q0 -160 -36 -266.5t-94 -171t-134 -91t-156 -26.5q-51 0 -101 10t-91 33v-496h-275zM375 205q61 -37 131 -37q98 0 147 82t49 268q0 182 -42 256 t-121 74q-25 0 -50.5 -10.5t-47 -25.5t-39 -31.5t-27.5 -30.5v-545z" />
<glyph unicode="&#xff;" horiz-adv-x="940" d="M14 1053h289q8 -31 21.5 -87.5t30 -126t35 -147.5t34.5 -151.5t29.5 -138t21.5 -107.5q12 66 37 175.5t50.5 223t50 213t36.5 146.5h279l-346 -1112q-33 -104 -77 -173t-90 -114t-90 -70.5t-77 -44.5q-10 14 -27.5 37t-35 47.5t-34 47t-26.5 36.5q12 10 42 29.5 t64.5 52.5t66.5 79t48 109zM136 1376q0 70 39.5 113t99.5 43q59 0 97 -43t38 -113t-38 -112.5t-97 -42.5t-99 42.5t-40 112.5zM527 1376q0 70 39 113t98 43t99 -43t40 -113t-40 -112.5t-99 -42.5t-98 42.5t-39 112.5z" />
<glyph unicode="&#x131;" horiz-adv-x="489" d="M106 0v1053h277v-1053h-277z" />
<glyph unicode="&#x152;" horiz-adv-x="1607" d="M68 674q0 358 133 528t381 170q139 0 225 -112v88h729v-232h-442v-311h336v-217h-336v-357h442v-231h-729v86q-86 -113 -225 -113q-248 0 -381 171.5t-133 529.5zM360 674q0 -225 51.5 -349t170.5 -124t170 124t51 349t-52.5 348t-168.5 123q-117 0 -169.5 -123 t-52.5 -348z" />
<glyph unicode="&#x153;" horiz-adv-x="1523" d="M57 526q0 147 32 252t90.5 171.5t142.5 96t186 29.5q96 0 172 -35.5t127 -113.5q51 76 117.5 112.5t144.5 36.5q88 0 161 -27.5t125 -88t81.5 -152.5t29.5 -221q0 -55 -5 -95t-7 -49h-534q2 -137 61 -197.5t147 -60.5q82 0 148.5 28t103.5 44l56 -180q-12 -8 -41 -24.5 t-75 -34t-107.5 -30t-137.5 -12.5q-82 0 -152.5 34t-121.5 106q-51 -72 -126 -106t-167 -34q-102 0 -186 30t-142.5 96.5t-90.5 170.5t-32 254zM342 526q0 -186 40 -267t126 -81t126 81t40 267q0 184 -40 265t-126 81t-126 -81t-40 -265zM920 614h280q0 78 -10 129.5 t-27.5 81t-42 42t-53.5 12.5q-27 0 -53.5 -13.5t-47 -44t-33.5 -82t-13 -125.5z" />
<glyph unicode="&#x178;" horiz-adv-x="1081" d="M-4 1348h305q35 -94 72 -191.5t68.5 -184.5t58 -159t41.5 -113q14 41 40.5 113t58.5 159t68.5 184t71.5 192h305q-92 -207 -183 -412t-183 -410l-35 -82v-444h-285v444l-37 82q-92 205 -183 410t-183 412zM207 1671q0 70 39.5 113t99.5 43q59 0 97 -43t38 -113 t-38 -112.5t-97 -42.5t-99 42.5t-40 112.5zM598 1671q0 70 39 113t98 43t99 -43t40 -113t-40 -112.5t-99 -42.5t-98 42.5t-39 112.5z" />
<glyph unicode="&#x2c6;" horiz-adv-x="827" d="M96 1374l244 232h133l258 -230l-100 -145l-217 158l-219 -158z" />
<glyph unicode="&#x2da;" horiz-adv-x="878" d="M174 1454q0 100 61.5 166t155.5 66q45 0 85 -17.5t68.5 -48.5t46 -74t17.5 -92q0 -102 -61.5 -168.5t-155.5 -66.5q-96 0 -156.5 66.5t-60.5 168.5zM299 1454q0 -47 25.5 -77.5t66.5 -30.5t65.5 30.5t24.5 77.5t-24.5 77t-65.5 30t-66.5 -30t-25.5 -77z" />
<glyph unicode="&#x2dc;" horiz-adv-x="882" d="M63 1339q18 20 41 53t52.5 62t68.5 50.5t90 21.5q43 0 78 -13.5t65.5 -30t59.5 -29.5t62 -13q25 0 47 9t40.5 21.5t31 23.5t16.5 17l104 -81q-16 -23 -37.5 -55t-51.5 -62.5t-67.5 -52t-89.5 -21.5q-43 0 -76.5 12.5t-64.5 27.5t-60.5 28.5t-62.5 13.5q-25 0 -48 -8 t-41.5 -20.5t-33 -25t-20.5 -20.5z" />
<glyph unicode="&#x2000;" horiz-adv-x="989" />
<glyph unicode="&#x2001;" horiz-adv-x="1980" />
<glyph unicode="&#x2002;" horiz-adv-x="989" />
<glyph unicode="&#x2003;" horiz-adv-x="1980" />
<glyph unicode="&#x2004;" horiz-adv-x="659" />
<glyph unicode="&#x2005;" horiz-adv-x="493" />
<glyph unicode="&#x2006;" horiz-adv-x="329" />
<glyph unicode="&#x2007;" horiz-adv-x="329" />
<glyph unicode="&#x2008;" horiz-adv-x="245" />
<glyph unicode="&#x2009;" horiz-adv-x="395" />
<glyph unicode="&#x200a;" horiz-adv-x="108" />
<glyph unicode="&#x2010;" horiz-adv-x="653" d="M74 463v221h506v-221h-506z" />
<glyph unicode="&#x2011;" horiz-adv-x="653" d="M74 463v221h506v-221h-506z" />
<glyph unicode="&#x2012;" horiz-adv-x="653" d="M74 463v221h506v-221h-506z" />
<glyph unicode="&#x2013;" horiz-adv-x="925" d="M49 494v229h825v-229h-825z" />
<glyph unicode="&#x2014;" horiz-adv-x="1558" d="M84 496v225h1389v-225h-1389z" />
<glyph unicode="&#x2018;" horiz-adv-x="421" d="M82 1118q0 49 15.5 103.5t41 109.5t59 109.5t68.5 105.5q29 -14 56.5 -28.5t56.5 -28.5q-35 -66 -62.5 -140.5t-27.5 -131.5q4 -33 22.5 -66t22.5 -78q0 -33 -36 -61.5t-85 -28.5q-55 0 -93 34.5t-38 100.5z" />
<glyph unicode="&#x2019;" horiz-adv-x="421" d="M41 1038q35 66 62.5 141.5t27.5 131.5q-2 33 -22.5 65.5t-20.5 77.5q0 33 36 61.5t85 28.5q129 0 129 -164q-4 -47 -20.5 -99t-43 -103.5t-57.5 -101.5t-61 -95z" />
<glyph unicode="&#x201a;" horiz-adv-x="421" d="M41 -248q35 66 62.5 141.5t27.5 131.5q-2 33 -22.5 65.5t-20.5 77.5q0 33 36 61.5t85 28.5q129 0 129 -164q-4 -47 -21.5 -99t-43 -103.5t-56.5 -101.5t-61 -93z" />
<glyph unicode="&#x201c;" horiz-adv-x="774" d="M82 1118q0 49 15.5 103.5t41 109.5t59 109.5t68.5 105.5l113 -57q-35 -66 -61.5 -140.5t-26.5 -131.5q4 -33 21.5 -65t21.5 -79q0 -33 -36 -61.5t-85 -28.5q-55 0 -93 34.5t-38 100.5zM430 1118q0 49 15.5 103.5t42 109.5t59.5 110.5t67 104.5q29 -14 56.5 -28.5 t56.5 -28.5q-35 -66 -61.5 -140.5t-26.5 -131.5q4 -33 22.5 -66t22.5 -78q0 -33 -37 -61.5t-86 -28.5q-55 0 -93 34.5t-38 100.5z" />
<glyph unicode="&#x201d;" horiz-adv-x="774" d="M41 1038q35 66 62.5 141.5t27.5 131.5q-2 33 -22.5 65.5t-20.5 77.5q0 33 36 61.5t85 28.5q129 0 129 -164q-4 -47 -20.5 -99t-43 -103.5t-57.5 -101.5t-61 -95zM391 1038q27 47 52.5 106.5t25.5 104.5q0 35 -9 71t-9 79v10q0 59 32.5 97t73.5 38q131 0 131 -164 q-4 -47 -20.5 -99t-43 -104.5t-58 -102.5t-62.5 -93q-29 16 -56.5 28.5t-56.5 28.5z" />
<glyph unicode="&#x201e;" horiz-adv-x="774" d="M41 -248q35 66 62.5 141.5t27.5 131.5q-2 33 -22.5 65.5t-20.5 77.5q0 33 36 61.5t85 28.5q129 0 129 -164q-4 -47 -21.5 -99t-43 -103.5t-56.5 -101.5t-61 -93zM391 -248q27 49 52.5 107.5t25.5 105.5q0 35 -9 70t-9 78v10q0 59 32.5 97t73.5 38q131 0 131 -164 q-4 -47 -21.5 -98t-43 -103.5t-57 -102.5t-62.5 -93z" />
<glyph unicode="&#x2022;" horiz-adv-x="794" d="M125 725q0 68 21.5 124t58.5 97t87 63.5t107 22.5t107.5 -22.5t87.5 -63.5t58.5 -97t21.5 -124t-21.5 -123t-58.5 -95t-87 -62.5t-108 -22.5q-57 0 -107 22.5t-87 62.5t-58.5 95t-21.5 123z" />
<glyph unicode="&#x2026;" horiz-adv-x="1499" d="M102 152q0 78 44 125t110 47t109 -47.5t43 -124.5q0 -78 -43 -125t-109 -47t-110 47t-44 125zM596 152q0 78 44 125t110 47t108.5 -47.5t42.5 -124.5q0 -78 -43 -125t-108 -47q-66 0 -110 47t-44 125zM1090 152q0 78 44 125t109 47q66 0 110 -47.5t44 -124.5 q0 -78 -44 -125t-110 -47t-109.5 47t-43.5 125z" />
<glyph unicode="&#x202f;" horiz-adv-x="395" />
<glyph unicode="&#x2039;" horiz-adv-x="604" d="M86 549q78 98 155.5 195.5t155.5 195.5l127 -111l-205 -278q51 -72 102.5 -140.5t102.5 -138.5q-33 -31 -63.5 -61.5t-63.5 -58.5q-78 98 -155.5 198.5t-155.5 198.5z" />
<glyph unicode="&#x203a;" horiz-adv-x="604" d="M76 821l129 119l311 -395l-311 -393l-127 110l203 281z" />
<glyph unicode="&#x205f;" horiz-adv-x="493" />
<glyph unicode="&#x20ac;" horiz-adv-x="1110" d="M57 461q4 35 8.5 71.5t8.5 71.5h90v141h-107l17 144h104q76 485 535 485q63 0 121.5 -8t104.5 -19.5t79 -21.5t45 -14q-10 -53 -19.5 -107.5t-19.5 -107.5q-14 6 -43 15t-65.5 16.5t-76.5 13.5t-77 6q-129 0 -196.5 -64.5t-90.5 -193.5h356l-14 -144h-356v-141h346 l-14 -143h-318q23 -135 89.5 -199.5t197.5 -64.5q37 0 77 6t76.5 13t65.5 16.5t43 15.5q10 -53 19.5 -107.5t19.5 -107.5q-12 -4 -45 -14.5t-79 -21.5t-104.5 -19.5t-121.5 -8.5q-229 0 -363.5 121t-171.5 371h-121z" />
<glyph unicode="&#x2122;" horiz-adv-x="1538" d="M80 1348v165h569v-165h-194v-664h-189v664h-186zM662 684q6 59 18 154.5t25.5 209t28 234.5t26.5 231h188q31 -121 61.5 -240.5t63.5 -240.5q35 123 70 242t69 239h185q23 -209 43 -414.5t41 -414.5h-187l-43 498v-2l-121 -418h-126l-58 221l-57 221q-10 -160 -23.5 -295 t-21.5 -225h-182z" />
<glyph unicode="&#xe000;" horiz-adv-x="1055" d="M0 1055h1055v-1055h-1055v1055z" />
<glyph unicode="&#xfb01;" horiz-adv-x="1122" d="M725 1374q0 74 45 121t111 47t110.5 -47t44.5 -121t-45 -120t-110 -46q-66 0 -111 46t-45 120zM739 0v1032l277 41v-1073h-277zM25 850v203h112v123q0 188 65.5 274t207.5 86q98 0 150 -16.5t73 -24.5l-4 -98q-2 -49 -6 -99q-12 4 -45 11.5t-74 7.5q-53 0 -71.5 -39 t-18.5 -141v-84h188v-203h-188v-850h-277v850h-112z" />
<glyph unicode="&#xfb02;" horiz-adv-x="1110" d="M733 0v1473l277 40v-1513h-277zM25 850v203h112v123q0 188 65.5 274t207.5 86q98 0 150 -16.5t73 -24.5l-4 -98q-2 -49 -6 -99q-12 4 -45 11.5t-74 7.5q-53 0 -71.5 -39t-18.5 -141v-84h188v-203h-188v-850h-277v850h-112z" />
<glyph unicode="&#xfb03;" horiz-adv-x="1755" d="M1358 1374q0 74 45 121t111 47t110.5 -47t44.5 -121t-45 -120t-110 -46q-66 0 -111 46t-45 120zM1372 0v1032l277 41v-1073h-277zM658 850v203h112v123q0 188 65.5 274t207.5 86q98 0 150 -16.5t73 -24.5l-4 -98q-2 -49 -6 -99q-12 4 -45 11.5t-74 7.5q-53 0 -71.5 -39 t-18.5 -141v-84h188v-203h-188v-850h-277v850h-112zM25 850v203h112v123q0 188 65.5 274t207.5 86q98 0 150 -16.5t73 -24.5l-4 -98q-2 -49 -6 -99q-12 4 -45 11.5t-74 7.5q-53 0 -71.5 -39t-18.5 -141v-84h188v-203h-188v-850h-277v850h-112z" />
<glyph unicode="&#xfb04;" horiz-adv-x="1742" d="M1366 0v1473l277 40v-1513h-277zM658 850v203h112v123q0 188 65.5 274t207.5 86q98 0 150 -16.5t73 -24.5l-4 -98q-2 -49 -6 -99q-12 4 -45 11.5t-74 7.5q-53 0 -71.5 -39t-18.5 -141v-84h188v-203h-188v-850h-277v850h-112zM25 850v203h112v123q0 188 65.5 274t207.5 86 q98 0 150 -16.5t73 -24.5l-4 -98q-2 -49 -6 -99q-12 4 -45 11.5t-74 7.5q-53 0 -71.5 -39t-18.5 -141v-84h188v-203h-188v-850h-277v850h-112z" />
</font>
</defs>
</svg>
